<?xml version="1.0" encoding="UTF-8"?>
<svg data-name="Слой 2" id="_Слой_2" viewBox="0 0 500.75 398.98" xmlns="http://www.w3.org/2000/svg">
  <defs>
    <style>
      .cls-1 {
        fill: #fbaf23;
      }

      .cls-2 {
        fill: #1e1d22;
      }

      .cls-3 {
        fill: #231f20;
      }

      .cls-4 {
        fill: #2572ba;
      }
    </style>
  </defs>
  <g data-name="Layer 1" id="Layer_1">
    <g>
      <path class="cls-4" d="M326.11,179.61c-.52,0-1.03,.07-1.53,.21-3.57,1-5.52,4.06-7.63,6.79-8.92,11.51-23.13,18.75-37.69,19.21-.5,.02-.99,.02-1.49,.02-11.57,0-23.08-4.24-31.98-11.63-1.73-1.44-.69-4.17,1.42-4.17,.12,0,.25,0,.38,.03l17.51,2.57c1.05,.15,2.28,.25,3.6,.25,4.54,0,10.11-1.13,13.04-4.79,1.57-1.96,.33-4.92-2.13-5.44-21.51-4.49-29.73-9.5-40.26-13.72-8.76-3.51-17.74-5.26-26.56-5.26-14.25,0-28.09,4.56-39.9,13.57-5.99,4.57-10.31,10.16-13.32,15.16-1.76,2.92,.56,6.3,3.55,6.3,.54,0,1.1-.11,1.67-.35,5.32-2.28,11.11-3.46,16.9-3.46,4.54,0,9.07,.73,13.36,2.24,9.8,3.45,19.81,10.15,28.81,15.35,12.49,7.22,25.93,11.1,39.81,11.1,5.18,0,10.41-.54,15.68-1.65,19.39-4.07,37.14-15.51,48.86-31.48,2.09-2.85,4.01-6.93,1.25-9.59-.9-.86-2.12-1.28-3.36-1.28Z"/>
      <path class="cls-1" d="M307.42,42.26s-12.51,5.24-14.46,27.5c0,0,2.64-41.13-41.43-69.76,0,0,19.11,41.23-17.72,80.88-17.8,19.16-31.12,52.06-16.24,77.82,6.44,.42,12.85,1.69,19.16,3.8-1.5-7.52-1.93-17.36,.16-30.02,6.35-38.65,37.69-49.78,35.36-82.65,0,0,13.82,23.33,14.73,70.13,0,0,13.18-5,14.09-25.9,0,0,34.98,41.94,21.07,81.15,.34-.13,.68-.27,1.05-.37,.96-.27,1.94-.41,2.93-.41,2.66,0,5.13,.97,6.95,2.73,.5,.48,1.31,1.4,1.96,2.72,3.46-7.23,5.91-16.12,6.58-27.11,3.42-55.98-40.99-72.8-34.18-110.52Z"/>
      <g>
        <path class="cls-2" d="M47.14,361.92h4.51v32.55h20.11v4.09h-24.62v-36.64Z"/>
        <path class="cls-2" d="M118.3,398.56l-2.9-7.88h-18.14l-2.9,7.88h-4.87l13.63-36.64h6.48l13.58,36.64h-4.87Zm-11.97-32.7l-7.57,20.73h15.13l-7.57-20.73Z"/>
        <path class="cls-2" d="M188.06,365.6c-2.18,0-4.04,.4-5.57,1.19-1.54,.79-2.8,1.87-3.78,3.21s-1.7,2.89-2.15,4.64c-.45,1.74-.67,3.57-.67,5.47,0,2.04,.24,3.96,.72,5.75,.49,1.8,1.23,3.36,2.23,4.69,1,1.33,2.28,2.38,3.84,3.16,1.55,.78,3.4,1.17,5.54,1.17,2.59,0,4.77-.54,6.53-1.61,1.76-1.07,2.9-2.5,3.42-4.3h4.92c-.79,3.04-2.47,5.47-5.03,7.28-2.56,1.81-5.87,2.72-9.95,2.72-2.83,0-5.3-.47-7.41-1.4-2.11-.93-3.86-2.23-5.26-3.89-1.4-1.66-2.44-3.63-3.14-5.91-.69-2.28-1.04-4.78-1.04-7.51s.34-5.18,1.04-7.46c.69-2.28,1.74-4.26,3.16-5.93,1.42-1.68,3.18-2.99,5.29-3.94s4.6-1.42,7.46-1.42c2,0,3.81,.24,5.42,.73,1.61,.48,3.01,1.17,4.2,2.05s2.17,1.94,2.93,3.16,1.31,2.58,1.66,4.07h-4.56c-.52-1.8-1.63-3.23-3.34-4.3-1.71-1.07-3.86-1.61-6.45-1.61Z"/>
        <path class="cls-2" d="M238.22,398.98c-2.87,0-5.37-.47-7.52-1.43-2.14-.95-3.94-2.25-5.39-3.91-1.45-1.66-2.54-3.63-3.26-5.91-.73-2.28-1.09-4.77-1.09-7.46s.36-5.19,1.09-7.49c.73-2.3,1.81-4.28,3.26-5.93,1.45-1.66,3.25-2.96,5.39-3.91,2.14-.95,4.65-1.42,7.52-1.42s5.32,.47,7.46,1.42c2.14,.95,3.94,2.25,5.39,3.91,1.45,1.66,2.54,3.64,3.26,5.93,.73,2.3,1.09,4.79,1.09,7.49s-.36,5.18-1.09,7.46c-.73,2.28-1.81,4.25-3.26,5.91-1.45,1.66-3.25,2.96-5.39,3.91-2.14,.95-4.63,1.43-7.46,1.43Zm0-33.38c-2.18,0-4.06,.39-5.65,1.17-1.59,.78-2.9,1.84-3.94,3.19-1.04,1.35-1.81,2.91-2.33,4.69-.52,1.78-.78,3.65-.78,5.62s.25,3.84,.75,5.6c.5,1.76,1.27,3.32,2.31,4.66,1.04,1.35,2.36,2.41,3.96,3.19,1.61,.78,3.5,1.17,5.68,1.17s4.06-.39,5.65-1.17c1.59-.78,2.9-1.83,3.91-3.16,1.02-1.33,1.78-2.88,2.28-4.64,.5-1.76,.75-3.65,.75-5.65s-.25-3.89-.75-5.67c-.5-1.78-1.27-3.33-2.31-4.66-1.04-1.33-2.35-2.39-3.94-3.16-1.59-.78-3.46-1.17-5.6-1.17Z"/>
        <path class="cls-2" d="M277.97,398.56v-36.64h5.75l19.12,30.53v-30.53h4.51v36.64h-5.65l-19.23-30.42v30.42h-4.51Z"/>
        <path class="cls-2" d="M339.9,398.56v-32.55h-11.76v-4.09h28.04v4.09h-11.76v32.55h-4.51Z"/>
        <path class="cls-2" d="M389.61,398.98c-2.87,0-5.37-.47-7.52-1.43-2.14-.95-3.94-2.25-5.39-3.91-1.45-1.66-2.54-3.63-3.26-5.91-.73-2.28-1.09-4.77-1.09-7.46s.36-5.19,1.09-7.49c.73-2.3,1.81-4.28,3.26-5.93,1.45-1.66,3.25-2.96,5.39-3.91,2.14-.95,4.65-1.42,7.52-1.42s5.32,.47,7.46,1.42c2.14,.95,3.94,2.25,5.39,3.91,1.45,1.66,2.54,3.64,3.26,5.93,.73,2.3,1.09,4.79,1.09,7.49s-.36,5.18-1.09,7.46c-.73,2.28-1.81,4.25-3.26,5.91-1.45,1.66-3.25,2.96-5.39,3.91-2.14,.95-4.63,1.43-7.46,1.43Zm0-33.38c-2.18,0-4.06,.39-5.65,1.17-1.59,.78-2.9,1.84-3.94,3.19s-1.81,2.91-2.33,4.69c-.52,1.78-.78,3.65-.78,5.62s.25,3.84,.75,5.6c.5,1.76,1.27,3.32,2.31,4.66,1.04,1.35,2.36,2.41,3.96,3.19,1.61,.78,3.5,1.17,5.68,1.17s4.06-.39,5.65-1.17c1.59-.78,2.9-1.83,3.91-3.16,1.02-1.33,1.78-2.88,2.28-4.64,.5-1.76,.75-3.65,.75-5.65s-.25-3.89-.75-5.67c-.5-1.78-1.27-3.33-2.31-4.66-1.04-1.33-2.35-2.39-3.94-3.16-1.59-.78-3.46-1.17-5.6-1.17Z"/>
        <path class="cls-2" d="M431.27,384.83v13.73h-4.51v-36.64h13.73c2,0,3.82,.21,5.44,.62,1.62,.41,3.01,1.07,4.15,1.97,1.14,.9,2.01,2.08,2.62,3.55,.6,1.47,.91,3.24,.91,5.31,0,1.52-.23,2.88-.67,4.07-.45,1.19-1.05,2.23-1.79,3.11-.74,.88-1.62,1.61-2.62,2.18-1,.57-2.04,1.01-3.11,1.32l7.67,14.51h-4.92l-7.31-13.73h-9.59Zm7.77-4.09c1.35,0,2.62-.1,3.81-.31s2.24-.59,3.14-1.14c.9-.55,1.61-1.3,2.15-2.25,.53-.95,.82-2.22,.86-3.81,0-2.63-.77-4.48-2.31-5.57-1.54-1.09-3.76-1.63-6.66-1.63h-8.76v14.72h7.77Z"/>
      </g>
      <g>
        <path class="cls-3" d="M20.11,334.01H0l29.44-73.39h19.07l29.13,73.39h-20.21l-3.63-10.37H23.84l-3.73,10.37Zm27.78-27.26l-8.92-25.19-9.22,25.19h18.14Z"/>
        <path class="cls-3" d="M143.35,307.57c.07,18.18-8.67,27.26-26.22,27.26-4.29,0-8.1-.59-11.46-1.76-3.35-1.17-6.22-2.87-8.6-5.08-2.38-2.21-4.2-4.94-5.44-8.19-1.24-3.25-1.87-6.91-1.87-10.99v-2.69h18.66c0,1.18,.07,2.4,.21,3.68,.14,1.28,.48,2.49,1.04,3.63,.55,1.14,1.4,2.07,2.54,2.8,1.14,.73,2.75,1.09,4.82,1.09,1.59,0,2.88-.24,3.89-.73,1-.48,1.78-1.12,2.33-1.92,.55-.79,.92-1.69,1.09-2.7,.17-1,.26-2.02,.26-3.06v-48.3h18.76v46.95Z"/>
        <path class="cls-3" d="M209.69,334.83c-10.92,0-19-2.92-24.26-8.76-5.25-5.84-7.88-14.46-7.88-25.86v-39.6h18.76v40.74c0,2.01,.21,3.96,.62,5.86,.42,1.9,1.14,3.61,2.18,5.13,1.04,1.52,2.44,2.73,4.2,3.63,1.76,.9,3.96,1.35,6.58,1.35,2.76,0,5.01-.47,6.74-1.4,1.73-.93,3.07-2.16,4.04-3.68,.97-1.52,1.62-3.23,1.97-5.13,.34-1.9,.52-3.82,.52-5.75v-40.74h18.76v39.6c0,11.33-2.59,19.94-7.77,25.81-5.18,5.87-13.34,8.81-24.46,8.81Z"/>
        <path class="cls-3" d="M264.94,278.03v-17.41h62.4v17.41h-21.87v55.97h-18.76v-55.97h-21.77Z"/>
        <path class="cls-3" d="M381.96,259.69c5.53,0,10.59,.88,15.19,2.64,4.6,1.76,8.53,4.25,11.82,7.46,3.28,3.21,5.84,7.12,7.67,11.71,1.83,4.6,2.75,9.73,2.75,15.39s-.9,10.73-2.7,15.39c-1.8,4.66-4.35,8.67-7.67,12.02-3.32,3.35-7.27,5.94-11.87,7.77-4.6,1.83-9.69,2.75-15.29,2.75s-10.92-.9-15.55-2.7c-4.63-1.8-8.59-4.33-11.87-7.62-3.28-3.28-5.8-7.24-7.57-11.87-1.76-4.63-2.64-9.78-2.64-15.44s.91-10.81,2.75-15.44c1.83-4.63,4.41-8.57,7.72-11.82,3.32-3.25,7.29-5.77,11.92-7.57,4.63-1.8,9.74-2.7,15.34-2.7Zm-18.55,37.42c0,2.49,.36,4.92,1.09,7.31,.72,2.38,1.85,4.53,3.37,6.43,1.52,1.9,3.47,3.42,5.86,4.56,2.38,1.14,5.27,1.71,8.65,1.71,3.18,0,5.89-.6,8.14-1.81,2.24-1.21,4.09-2.76,5.54-4.66,1.45-1.9,2.5-4.01,3.16-6.32,.66-2.31,.98-4.61,.98-6.89,0-2.14-.31-4.4-.93-6.79-.62-2.38-1.66-4.54-3.11-6.48-1.45-1.93-3.34-3.54-5.65-4.82-2.32-1.28-5.13-1.92-8.45-1.92s-6.17,.59-8.55,1.76c-2.38,1.18-4.32,2.7-5.81,4.56-1.49,1.87-2.57,3.97-3.26,6.32-.69,2.35-1.04,4.7-1.04,7.05Z"/>
        <path class="cls-3" d="M468.51,260.62c3.32,0,6.72,.29,10.21,.88,3.49,.59,6.65,1.75,9.48,3.47,2.83,1.73,5.18,4.18,7.05,7.36s2.83,7.32,2.9,12.44c-.14,4.84-1.3,9.16-3.47,12.96-2.18,3.8-5.82,6.67-10.94,8.6l17,27.68h-21.35l-14.1-24.77h-9.02v24.77h-18.76v-73.39h30.99Zm.1,32.13c3.53,0,6.24-.66,8.14-1.97,1.9-1.31,2.85-3.21,2.85-5.7,0-1.52-.28-2.73-.83-3.63-.55-.9-1.31-1.61-2.28-2.13-.97-.52-2.11-.86-3.42-1.04-1.31-.17-2.7-.26-4.15-.26h-12.65v14.72h12.33Z"/>
      </g>
    </g>
  </g>
</svg>
