<?xml version="1.0" encoding="UTF-8"?>
<svg data-name="Слой 2" id="_Слой_2" viewBox="0 0 750.05 213.32" xmlns="http://www.w3.org/2000/svg">
  <defs>
    <style>
      .cls-1 {
        fill: #fbaf23;
      }

      .cls-2 {
        fill: #1e1d22;
      }

      .cls-3 {
        fill: #231f20;
      }

      .cls-4 {
        fill: #2572ba;
      }
    </style>
  </defs>
  <g data-name="Layer 1" id="Layer_1">
    <g>
      <path class="cls-4" d="M159.45,171.35c-.49,0-.99,.07-1.46,.2-3.4,.96-5.26,3.87-7.28,6.48-8.51,10.98-22.06,17.89-35.95,18.33-.47,.02-.95,.02-1.42,.02-11.04,0-22.02-4.05-30.51-11.09-1.65-1.37-.66-3.97,1.35-3.97,.12,0,.24,0,.36,.03l16.71,2.46c1.01,.15,2.18,.24,3.43,.24,4.33,0,9.65-1.07,12.44-4.57,1.5-1.87,.32-4.7-2.03-5.19-20.52-4.28-28.36-9.06-38.41-13.09-8.36-3.35-16.92-5.02-25.33-5.02-13.6,0-26.8,4.35-38.06,12.94-5.71,4.36-9.83,9.69-12.7,14.46-1.68,2.79,.53,6.01,3.39,6.01,.51,0,1.05-.1,1.59-.34,5.07-2.17,10.6-3.31,16.12-3.31,4.33,0,8.65,.7,12.75,2.14,9.35,3.29,18.9,9.68,27.48,14.65,11.92,6.89,24.74,10.58,37.98,10.58,4.94,0,9.93-.51,14.96-1.57,18.5-3.88,35.43-14.79,46.61-30.04,2-2.72,3.82-6.61,1.19-9.15-.86-.82-2.02-1.22-3.2-1.22Z"/>
      <path class="cls-1" d="M141.62,40.31s-11.93,5-13.79,26.24c0,0,2.52-39.24-39.52-66.55,0,0,18.23,39.33-16.91,77.16-16.98,18.28-29.69,49.67-15.5,74.24,6.14,.4,12.26,1.62,18.28,3.63-1.43-7.18-1.84-16.56,.15-28.64,6.06-36.87,35.96-47.49,33.73-78.85,0,0,13.18,22.25,14.05,66.9,0,0,12.57-4.77,13.44-24.71,0,0,33.37,40.01,20.1,77.42,.33-.12,.65-.25,1-.35,.91-.26,1.85-.39,2.8-.39,2.53,0,4.89,.92,6.63,2.6,.48,.46,1.25,1.34,1.87,2.6,3.3-6.9,5.64-15.38,6.28-25.86,3.27-53.41-39.11-69.45-32.61-105.43Z"/>
      <g>
        <g>
          <path class="cls-2" d="M289.74,151.39h4.58v33.03h20.41v4.15h-24.98v-37.18Z"/>
          <path class="cls-2" d="M361.95,188.58l-2.95-7.99h-18.41l-2.95,7.99h-4.94l13.83-37.18h6.57l13.78,37.18h-4.94Zm-12.15-33.19l-7.68,21.04h15.36l-7.68-21.04Z"/>
          <path class="cls-2" d="M432.74,155.13c-2.21,0-4.1,.4-5.65,1.21-1.56,.81-2.84,1.89-3.84,3.26-1,1.37-1.73,2.94-2.18,4.71-.46,1.77-.68,3.62-.68,5.55,0,2.07,.24,4.02,.73,5.84,.49,1.82,1.25,3.41,2.26,4.76,1.02,1.35,2.31,2.42,3.89,3.21,1.58,.79,3.45,1.18,5.63,1.18,2.63,0,4.84-.54,6.63-1.63,1.79-1.09,2.95-2.54,3.47-4.37h5c-.81,3.09-2.51,5.55-5.1,7.39-2.59,1.84-5.96,2.76-10.1,2.76-2.88,0-5.38-.47-7.52-1.42-2.14-.95-3.92-2.26-5.34-3.94-1.42-1.68-2.48-3.68-3.18-6-.7-2.31-1.05-4.85-1.05-7.63s.35-5.26,1.05-7.57c.7-2.31,1.77-4.32,3.21-6.02,1.44-1.7,3.23-3.03,5.36-4,2.14-.96,4.66-1.45,7.57-1.45,2.03,0,3.86,.25,5.5,.74,1.63,.49,3.05,1.18,4.26,2.08,1.21,.89,2.2,1.96,2.97,3.21,.77,1.24,1.33,2.62,1.68,4.13h-4.63c-.53-1.82-1.66-3.28-3.39-4.37-1.74-1.09-3.92-1.63-6.55-1.63Z"/>
          <path class="cls-2" d="M483.65,189c-2.91,0-5.45-.48-7.63-1.45-2.17-.96-4-2.29-5.47-3.97-1.47-1.68-2.58-3.68-3.31-6-.74-2.31-1.1-4.84-1.1-7.57s.37-5.27,1.1-7.6c.74-2.33,1.84-4.34,3.31-6.02,1.47-1.68,3.3-3.01,5.47-3.97,2.18-.96,4.71-1.45,7.63-1.45s5.4,.48,7.57,1.45c2.17,.96,4,2.29,5.47,3.97,1.47,1.68,2.58,3.69,3.31,6.02,.74,2.33,1.1,4.87,1.1,7.6s-.37,5.26-1.1,7.57c-.74,2.32-1.84,4.31-3.31,6-1.47,1.68-3.3,3.01-5.47,3.97-2.18,.97-4.7,1.45-7.57,1.45Zm0-33.87c-2.21,0-4.12,.4-5.73,1.18-1.62,.79-2.95,1.87-4,3.23-1.05,1.37-1.84,2.95-2.37,4.76-.52,1.81-.79,3.71-.79,5.71s.25,3.89,.76,5.68c.51,1.79,1.29,3.37,2.34,4.73,1.05,1.37,2.39,2.45,4.02,3.23,1.63,.79,3.55,1.18,5.76,1.18s4.12-.39,5.73-1.18c1.61-.79,2.94-1.86,3.97-3.21,1.03-1.35,1.81-2.92,2.32-4.71,.51-1.79,.76-3.7,.76-5.73s-.26-3.95-.76-5.76c-.51-1.81-1.29-3.38-2.34-4.73-1.05-1.35-2.38-2.42-4-3.21-1.61-.79-3.51-1.18-5.68-1.18Z"/>
          <path class="cls-2" d="M523.99,188.58v-37.18h5.84l19.41,30.98v-30.98h4.58v37.18h-5.73l-19.51-30.87v30.87h-4.58Z"/>
          <path class="cls-2" d="M586.83,188.58v-33.03h-11.94v-4.15h28.45v4.15h-11.94v33.03h-4.57Z"/>
          <path class="cls-2" d="M637.27,189c-2.91,0-5.45-.48-7.63-1.45-2.17-.96-4-2.29-5.47-3.97-1.47-1.68-2.58-3.68-3.31-6-.74-2.31-1.1-4.84-1.1-7.57s.37-5.27,1.1-7.6c.74-2.33,1.84-4.34,3.31-6.02,1.47-1.68,3.3-3.01,5.47-3.97,2.18-.96,4.71-1.45,7.63-1.45s5.4,.48,7.57,1.45c2.17,.96,4,2.29,5.47,3.97,1.47,1.68,2.58,3.69,3.31,6.02,.74,2.33,1.1,4.87,1.1,7.6s-.37,5.26-1.1,7.57c-.74,2.32-1.84,4.31-3.31,6-1.47,1.68-3.3,3.01-5.47,3.97-2.18,.97-4.7,1.45-7.57,1.45Zm0-33.87c-2.21,0-4.12,.4-5.73,1.18-1.62,.79-2.95,1.87-4,3.23s-1.84,2.95-2.37,4.76c-.52,1.81-.79,3.71-.79,5.71s.25,3.89,.76,5.68c.51,1.79,1.29,3.37,2.34,4.73,1.05,1.37,2.39,2.45,4.02,3.23,1.63,.79,3.55,1.18,5.76,1.18s4.12-.39,5.73-1.18c1.61-.79,2.94-1.86,3.97-3.21,1.03-1.35,1.81-2.92,2.32-4.71,.51-1.79,.76-3.7,.76-5.73s-.26-3.95-.76-5.76c-.51-1.81-1.29-3.38-2.34-4.73-1.05-1.35-2.38-2.42-4-3.21s-3.51-1.18-5.68-1.18Z"/>
          <path class="cls-2" d="M679.55,174.64v13.94h-4.58v-37.18h13.94c2.03,0,3.87,.21,5.52,.63,1.65,.42,3.05,1.09,4.21,2,1.16,.91,2.04,2.11,2.66,3.6,.61,1.49,.92,3.29,.92,5.39,0,1.54-.23,2.92-.68,4.13-.45,1.21-1.06,2.26-1.81,3.15-.75,.89-1.64,1.63-2.66,2.21-1.02,.58-2.07,1.02-3.15,1.34l7.78,14.73h-5l-7.42-13.94h-9.73Zm7.89-4.15c1.37,0,2.66-.11,3.86-.32s2.27-.6,3.18-1.16c.91-.56,1.64-1.32,2.18-2.29,.54-.96,.83-2.25,.87-3.86,0-2.66-.78-4.55-2.34-5.65-1.56-1.1-3.81-1.66-6.76-1.66h-8.89v14.94h7.89Z"/>
        </g>
        <g>
          <path class="cls-3" d="M262.31,123.07h-20.41l29.87-74.47h19.35l29.56,74.47h-20.51l-3.68-10.52h-30.4l-3.79,10.52Zm28.19-27.66l-9.05-25.56-9.36,25.56h18.41Z"/>
          <path class="cls-3" d="M387.38,96.25c.07,18.44-8.8,27.66-26.61,27.66-4.35,0-8.22-.6-11.63-1.79-3.4-1.19-6.31-2.91-8.73-5.15-2.42-2.24-4.26-5.01-5.52-8.31-1.26-3.29-1.89-7.01-1.89-11.15v-2.73h18.93c0,1.19,.07,2.44,.21,3.73,.14,1.3,.49,2.52,1.05,3.68,.56,1.16,1.42,2.1,2.58,2.84,1.16,.74,2.79,1.1,4.89,1.1,1.61,0,2.92-.25,3.94-.74,1.01-.49,1.8-1.14,2.37-1.95,.56-.81,.93-1.72,1.1-2.73,.17-1.02,.26-2.05,.26-3.1V48.6h19.04v47.65Z"/>
          <path class="cls-3" d="M454.69,123.91c-11.08,0-19.29-2.96-24.61-8.89-5.33-5.92-7.99-14.67-7.99-26.24V48.6h19.04v41.34c0,2.04,.21,4.02,.63,5.94s1.16,3.66,2.21,5.21c1.05,1.54,2.47,2.77,4.26,3.68,1.79,.91,4.01,1.37,6.68,1.37,2.8,0,5.08-.47,6.84-1.42,1.75-.95,3.12-2.19,4.1-3.73,.98-1.54,1.65-3.28,2-5.21,.35-1.93,.53-3.87,.53-5.84V48.6h19.04v40.18c0,11.5-2.63,20.23-7.89,26.19-5.26,5.96-13.54,8.94-24.82,8.94Z"/>
          <path class="cls-3" d="M510.76,66.27v-17.67h63.32v17.67h-22.19v56.8h-19.04v-56.8h-22.09Z"/>
          <path class="cls-3" d="M629.51,47.65c5.61,0,10.75,.89,15.41,2.68,4.66,1.79,8.66,4.31,11.99,7.57,3.33,3.26,5.93,7.22,7.78,11.89,1.86,4.66,2.79,9.87,2.79,15.62s-.91,10.89-2.73,15.62c-1.82,4.73-4.42,8.8-7.78,12.2-3.37,3.4-7.38,6.03-12.04,7.89-4.66,1.86-9.84,2.79-15.52,2.79s-11.08-.91-15.78-2.73c-4.7-1.82-8.71-4.4-12.04-7.73-3.33-3.33-5.89-7.34-7.68-12.04-1.79-4.7-2.68-9.92-2.68-15.67s.93-10.97,2.79-15.67c1.86-4.7,4.47-8.69,7.84-11.99,3.37-3.29,7.4-5.85,12.1-7.68,4.7-1.82,9.89-2.73,15.57-2.73Zm-18.83,37.97c0,2.53,.37,5,1.11,7.42,.73,2.42,1.87,4.59,3.42,6.52,1.54,1.93,3.52,3.47,5.94,4.63,2.42,1.16,5.35,1.74,8.78,1.74,3.23,0,5.98-.61,8.26-1.84,2.28-1.22,4.15-2.8,5.63-4.73,1.47-1.93,2.54-4.07,3.21-6.42,.67-2.35,1-4.68,1-7,0-2.17-.32-4.47-.95-6.89-.63-2.42-1.68-4.61-3.16-6.57-1.47-1.96-3.38-3.59-5.73-4.89-2.35-1.3-5.21-1.95-8.57-1.95s-6.26,.6-8.68,1.79c-2.42,1.19-4.38,2.73-5.89,4.63-1.51,1.89-2.61,4.03-3.31,6.42-.7,2.38-1.05,4.77-1.05,7.15Z"/>
          <path class="cls-3" d="M717.34,48.6c3.37,0,6.82,.3,10.36,.89,3.54,.6,6.75,1.77,9.62,3.52,2.87,1.75,5.26,4.24,7.15,7.47,1.89,3.23,2.87,7.43,2.95,12.62-.14,4.91-1.31,9.29-3.52,13.15-2.21,3.86-5.91,6.77-11.1,8.73l17.25,28.08h-21.67l-14.3-25.14h-9.15v25.14h-19.04V48.6h31.45Zm.11,32.61c3.58,0,6.33-.67,8.26-2,1.93-1.33,2.89-3.26,2.89-5.78,0-1.54-.28-2.77-.84-3.68-.56-.91-1.33-1.63-2.31-2.16-.98-.53-2.14-.88-3.47-1.05-1.33-.17-2.73-.26-4.21-.26h-12.83v14.94h12.52Z"/>
        </g>
      </g>
    </g>
  </g>
</svg>