<svg fill="none" height="32" viewBox="0 0 32 32" width="32" xmlns="http://www.w3.org/2000/svg">
<rect fill="white" height="32" rx="16" width="32"/>
<path clip-rule="evenodd" d="M19.2928 10C20.1868 10 21.0468 10.3533 21.6795 10.9873C22.3128 11.62 22.6668 12.4733 22.6668 13.3667V18.6333C22.6668 20.4933 21.1535 22 19.2928 22H12.7068C10.8462 22 9.3335 20.4933 9.3335 18.6333V13.3667C9.3335 11.5067 10.8395 10 12.7068 10H19.2928ZM20.3535 14.36L20.4068 14.3067C20.5662 14.1133 20.5662 13.8333 20.3995 13.64C20.3068 13.5407 20.1795 13.48 20.0468 13.4667C19.9068 13.4593 19.7735 13.5067 19.6728 13.6L16.6668 16C16.2802 16.3207 15.7262 16.3207 15.3335 16L12.3335 13.6C12.1262 13.4467 11.8395 13.4667 11.6668 13.6467C11.4868 13.8267 11.4668 14.1133 11.6195 14.3133L11.7068 14.4L14.7402 16.7667C15.1135 17.06 15.5662 17.22 16.0402 17.22C16.5128 17.22 16.9735 17.06 17.3462 16.7667L20.3535 14.36Z" fill="#1373E6" fill-rule="evenodd"/>
</svg>