<svg fill="none" height="317" viewBox="0 0 326 317" width="326" xmlns="http://www.w3.org/2000/svg">
<rect fill="white" height="111" width="81" x="13" y="129"/>
<path d="M94.5254 197.311V128.781H12.9315V239.818H91.5569" stroke="#1E1E23" stroke-width="1.8"/>
<path d="M35.8183 182.832C32.6853 182.832 30.1456 180.29 30.1456 177.155C30.1456 174.02 32.6853 171.479 35.8183 171.479C38.9512 171.479 41.491 174.02 41.491 177.155C41.491 180.29 38.9512 182.832 35.8183 182.832Z" fill="#1E1E23"/>
<path d="M44.0339 200.252C40.9009 200.252 38.3611 197.71 38.3611 194.575C38.3611 191.44 40.9009 188.898 44.0339 188.898C47.1668 188.898 49.7065 191.44 49.7065 194.575C49.7065 197.71 47.1668 200.252 44.0339 200.252Z" fill="#1E1E23"/>
<path d="M48.7525 208.672C64.2791 208.672 76.9204 196.022 76.9204 180.484C76.9204 164.947 64.2791 152.297 48.7525 152.297C33.226 152.297 20.5847 164.947 20.5847 180.484C20.5847 196.022 33.2015 208.672 48.7525 208.672ZM48.7525 154.646C62.9832 154.646 74.5731 166.244 74.5731 180.484C74.5731 194.725 62.9832 206.323 48.7525 206.323C34.5219 206.323 22.932 194.725 22.932 180.484C22.932 166.244 34.4975 154.646 48.7525 154.646Z" fill="#1E1E23"/>
<path d="M50.5131 171.088C47.3802 171.088 44.8404 168.546 44.8404 165.411C44.8404 162.276 47.3802 159.734 50.5131 159.734C53.6461 159.734 56.1858 162.276 56.1858 165.411C56.1858 168.546 53.6461 171.088 50.5131 171.088Z" fill="#1E1E23"/>
<path d="M6.47561 158.167H15.8649C16.5251 158.167 17.0386 157.653 17.0386 156.993C17.0386 156.332 16.5251 155.818 15.8649 155.818H6.47561C5.81543 155.818 5.30197 156.332 5.30197 156.993C5.30197 157.653 5.81543 158.167 6.47561 158.167Z" fill="#1E1E23"/>
<path d="M6.47561 208.671H15.8649C16.5251 208.671 17.0386 208.157 17.0386 207.497C17.0386 206.836 16.5251 206.322 15.8649 206.322H6.47561C5.81543 206.322 5.30197 206.836 5.30197 207.497C5.30197 208.157 5.81543 208.671 6.47561 208.671Z" fill="#1E1E23"/>
<path d="M63.7654 148.503C65.7215 146.741 67.6776 144.979 69.6337 143.217C70.7584 142.214 72.4211 143.854 71.2964 144.881C69.3403 146.643 67.3842 148.405 65.4281 150.166C64.3033 151.194 62.6406 149.53 63.7654 148.503Z" fill="white"/>
<path d="M55.2075 142.215C56.21 140.258 57.2125 138.325 58.215 136.367C58.8996 135.022 60.9291 136.221 60.2444 137.542C59.2419 139.499 58.2395 141.432 57.237 143.39C56.5523 144.736 54.5229 143.561 55.2075 142.215Z" fill="white"/>
<path d="M74.7655 84.2119H112.676C113.107 84.2119 113.442 83.8767 113.442 83.4458V57.7661C113.442 57.3352 113.107 57 112.676 57H74.7655C74.3349 57 73.9999 57.3352 73.9999 57.7661V83.4458C73.9999 83.8608 74.3508 84.2119 74.7655 84.2119ZM111.911 82.6797H75.531V58.5322H111.911V82.6797Z" fill="#1E1E23"/>
<path d="M92.7719 69.2741C92.8995 69.2741 93.0271 69.2421 93.1387 69.1783L113.043 58.4531C113.41 58.2457 113.553 57.7828 113.362 57.4157C113.155 57.0487 112.692 56.905 112.325 57.0965L92.8038 67.6142L75.1802 57.1125C74.8134 56.8891 74.3509 57.0167 74.1276 57.3838C73.9043 57.7509 74.0319 58.2137 74.3987 58.4372L92.3891 69.1623C92.5007 69.2262 92.6283 69.2741 92.7719 69.2741Z" fill="#1E1E23"/>
<path d="M105.021 67.3574H132.597V88.8077H105.021V67.3574Z" fill="white"/>
<path d="M105.021 89.5743H132.597C133.027 89.5743 133.362 89.2391 133.362 88.8082V67.3579C133.362 66.927 133.027 66.5918 132.597 66.5918H105.021C104.59 66.5918 104.256 66.927 104.256 67.3579V88.8082C104.256 89.2391 104.606 89.5743 105.021 89.5743ZM131.831 88.0421H105.787V68.124H131.831V88.0421Z" fill="#1E1E23"/>
<path d="M119.184 76.9358C119.327 76.9358 119.471 76.8879 119.598 76.8081L132.995 67.9982C133.346 67.7588 133.442 67.2959 133.219 66.9448C132.98 66.5937 132.517 66.4979 132.166 66.7213L119.168 75.26L105.42 66.7054C105.053 66.482 104.59 66.5937 104.367 66.9448C104.144 67.3119 104.256 67.7747 104.606 67.9982L118.769 76.8081C118.913 76.8879 119.056 76.9358 119.184 76.9358Z" fill="#1E1E23"/>
<path d="M137.391 58.2878C135.122 58.2878 133.283 56.4474 133.283 54.1771C133.283 51.9068 135.122 50.0664 137.391 50.0664C139.659 50.0664 141.499 51.9068 141.499 54.1771C141.499 56.4474 139.659 58.2878 137.391 58.2878Z" fill="white"/>
<path d="M49.0828 265.935C51.0163 263.519 52.9497 261.103 54.8832 258.687C55.8335 257.51 57.5403 259.118 56.59 260.295C54.6566 262.711 52.7231 265.127 50.7896 267.543C49.8393 268.72 48.1325 267.113 49.0828 265.935Z" fill="#1E1E23"/>
<path d="M295.356 111.224C293.685 113.706 292.013 116.188 290.333 118.647C289.491 119.904 287.576 118.536 288.418 117.279C290.089 114.797 291.76 112.314 293.44 109.855C294.283 108.598 296.198 109.967 295.356 111.224Z" fill="#1E1E23"/>
<path d="M220.364 50.8156L221.25 44.5272C221.46 43.0425 223.798 43.2229 223.588 44.7077L222.702 50.9961C222.503 52.5029 220.143 52.333 220.364 50.8156Z" fill="#1E1E23"/>
<path d="M253.779 113.832C253.73 119.019 255.515 123.693 257.544 128.293C257.202 128.831 257.055 129.492 257.104 130.177C256.957 130.079 256.835 129.981 256.737 129.883C255.808 129.076 254.928 128.195 253.999 127.363C253.29 126.727 252.581 126.164 251.798 125.675L253.339 122.029L240.331 117.037L248.668 92.6914L257.275 95.9946C257.275 95.9946 277.961 102.723 266.273 135.119C263.51 128.122 259.134 121.466 259.182 113.857C259.207 110.358 253.803 110.358 253.779 113.832Z" fill="#1E1E23"/>
<path d="M232.482 135.438L243.069 139.499C243.656 147.892 244.023 156.285 244.903 164.653C239.891 166.781 235.123 166.194 231.039 164.359L222.432 161.056L232.482 135.438Z" fill="#1E1E23"/>
<path d="M141.157 289.002C145.264 289.002 149.201 288.709 152.82 288.17C194.68 281.955 212.359 230.963 215.244 213.566C215.44 212.343 215.562 211.266 215.586 210.312C219.572 208.11 224.144 202.849 226.565 194.506C228.056 189.318 227.714 185.477 226.54 182.908C230.11 178.185 233.216 170.478 234.047 161.792C234.096 161.155 233.631 160.568 232.996 160.519C232.335 160.47 231.773 160.935 231.724 161.571C230.917 170.111 228.056 176.742 225.196 180.803C224.878 180.461 224.535 180.167 224.193 179.923C221.895 178.308 219.205 178.234 217.371 179.751C215.757 181.073 215.293 183.25 216.198 185.281C217.004 187.116 218.52 187.997 220.33 187.703C221.772 187.459 223.313 186.505 224.853 184.963C225.465 187.018 225.489 189.979 224.364 193.869C222.31 200.965 218.643 205.492 215.537 207.67C215.195 205.345 214.29 204.269 213.581 203.779C212.628 203.118 211.43 203.07 210.403 203.657C208.96 204.489 208.104 206.348 208.275 208.379C208.422 210.141 209.522 211.315 211.283 211.487C211.87 211.56 212.53 211.487 213.239 211.315C213.19 211.878 213.092 212.514 212.994 213.199C212.163 218.215 207.958 234.707 198.69 250.636C186.685 271.238 171.158 283.081 152.551 285.846C126.608 289.687 85.0654 280.708 76.9721 240.164C76.8498 239.527 76.2385 239.111 75.5784 239.234C74.9426 239.356 74.5269 239.968 74.6492 240.628C81.8868 277.062 114.969 289.002 141.157 289.002ZM213.263 208.844C212.579 209.089 211.968 209.187 211.478 209.138C210.867 209.064 210.623 208.82 210.574 208.183C210.476 206.887 210.989 205.981 211.527 205.688C211.845 205.492 212.065 205.59 212.212 205.688C212.334 205.786 213.117 206.446 213.263 208.844ZM223.68 182.687C222.237 184.302 220.892 185.232 219.89 185.379C219.376 185.452 218.765 185.403 218.276 184.302C217.811 183.25 218.007 182.198 218.789 181.562C219.547 180.926 221.063 180.632 222.775 181.831C223.117 182.051 223.411 182.32 223.68 182.687Z" fill="#1E1E23"/>
<path d="M280.234 233.725C280.258 233.725 280.258 233.725 280.234 233.725C280.894 233.725 281.407 233.187 281.407 232.55C281.309 212.633 278.693 190.196 276.933 175.344C276.517 171.82 276.15 168.762 275.906 166.241C274.267 150.753 270.575 141.553 266.296 130.885C264.316 125.966 262.286 120.901 260.208 114.687C259.083 111.334 256.98 110.331 255.513 110.772C253.679 111.334 252.359 114.075 254.046 120.07C256.54 128.829 257.127 133.552 257.152 133.601C257.225 134.237 257.812 134.702 258.447 134.628C259.083 134.555 259.548 133.968 259.474 133.331C259.45 133.136 258.863 128.413 256.296 119.433C254.927 114.589 255.929 113.096 256.174 113.023C256.369 112.949 257.298 113.439 257.958 115.421C260.037 121.684 262.115 126.798 264.096 131.741C268.326 142.238 271.969 151.291 273.558 166.461C273.827 168.982 274.194 172.065 274.585 175.588C276.321 190.392 278.938 212.731 279.035 232.526C279.084 233.211 279.598 233.725 280.234 233.725Z" fill="#1E1E23"/>
<path d="M260.966 139.645C261.137 139.645 261.284 139.621 261.431 139.547C262.018 139.278 262.287 138.593 262.018 138.006C259.597 132.549 254.364 124.426 249.914 124.426C249.914 124.426 249.914 124.426 249.89 124.426C248.741 124.426 247.151 124.964 246.051 127.46C245.782 128.047 246.075 128.757 246.662 129.001C247.249 129.271 247.958 128.977 248.203 128.39C248.912 126.775 249.645 126.775 249.89 126.775C252.359 126.775 256.907 132.354 259.842 138.96C260.086 139.4 260.502 139.645 260.966 139.645Z" fill="#1E1E23"/>
<path d="M258.034 143.756C258.205 143.756 258.352 143.732 258.499 143.659C259.085 143.389 259.354 142.704 259.085 142.117C256.665 136.661 251.432 128.537 246.982 128.537C246.982 128.537 246.982 128.537 246.958 128.537C245.808 128.537 244.219 129.075 243.119 131.571C242.85 132.158 243.143 132.868 243.73 133.113C244.317 133.382 245.026 133.088 245.27 132.501C245.979 130.886 246.713 130.886 246.958 130.886C249.427 130.886 253.975 136.465 256.909 143.071C257.154 143.512 257.569 143.756 258.034 143.756Z" fill="#1E1E23"/>
<path d="M254.804 147.573C254.975 147.573 255.122 147.548 255.269 147.475C255.856 147.206 256.125 146.52 255.856 145.933C253.166 139.865 247.42 133.332 242.799 133.332H242.774C241.429 133.332 239.571 133.895 238.446 136.537C238.177 137.125 238.471 137.834 239.058 138.079C239.644 138.348 240.354 138.054 240.598 137.467C241.283 135.877 242.187 135.681 242.799 135.681C245.904 135.681 251.088 141.015 253.704 146.887C253.924 147.328 254.34 147.573 254.804 147.573Z" fill="#1E1E23"/>
<path d="M267.495 272.776C272.483 272.776 277.447 270.721 281.457 266.879C286.543 262.01 294.587 249.898 291.189 223.423C286.518 187.161 281.066 177.888 277.08 171.11L276.958 170.89C276.64 170.327 275.906 170.131 275.344 170.474C274.782 170.792 274.611 171.526 274.928 172.089L275.051 172.309C278.938 178.915 284.244 187.944 288.866 223.741C292.142 249.188 284.636 260.64 279.843 265.191C275.54 269.301 270.038 271.137 264.781 270.207C252.091 267.956 249.67 253.275 248.912 237.737C248.521 221.833 246.467 142.164 244.682 138.567C244.389 137.98 243.68 137.76 243.117 138.053C242.531 138.347 242.31 139.057 242.604 139.619C243.826 142.849 245.66 200.105 246.589 237.811C247.372 254.351 250.061 269.986 264.39 272.531C265.417 272.678 266.444 272.776 267.495 272.776Z" fill="#1E1E23"/>
<path d="M245.783 168.346C246.345 168.346 259.964 168.248 274.171 159.561C274.733 159.219 274.904 158.509 274.562 157.946C274.219 157.384 273.51 157.212 272.948 157.555C259.329 165.874 245.905 165.997 245.783 165.997C245.147 165.997 244.609 166.535 244.609 167.171C244.609 167.807 245.147 168.346 245.783 168.346Z" fill="#1E1E23"/>
<path d="M231.722 134.039C232.284 146.665 216.097 148.28 209.251 140.327C204.703 135.042 204.532 127.946 205.681 121.438C206.439 117.131 207.833 112.678 207.271 108.249C206.537 102.328 202.209 98.7068 197.686 95.5014C197.686 95.5259 197.686 95.5259 197.686 95.5259C197.588 97.0429 195.24 96.7983 195.338 95.2812C196.17 83.9034 209.936 84.0747 216.122 90.9993C221.085 96.5536 221.917 104.286 223.311 111.283C224.411 116.813 226.416 121.046 228.934 125.989C230.279 128.509 231.6 131.152 231.722 134.039Z" fill="#1E1E23"/>
<path d="M167.342 104.506C155.776 99.7596 154.016 85.1276 165.508 83.8307C177 82.5339 202.821 83.4637 210.718 95.3064C218.616 107.149 228.47 120.435 215.975 130.492C203.481 140.548 167.342 104.506 167.342 104.506Z" fill="#1E1E23"/>
<path d="M215.658 161.982C214.142 146.518 212.846 135.849 212.846 135.849C217.247 130.638 216.391 119.431 216.391 119.431C227.076 115.247 235.317 105.729 228.348 95.966C223.409 89.0659 215.584 91.5617 210.719 95.3053C208.738 96.8468 207.246 98.5841 206.635 99.9788C206.635 99.9788 204.043 91.366 189.348 91.6596C176.707 91.9287 169.445 95.966 167.318 104.481C166.535 107.588 166.437 111.283 167 115.614C168.711 128.705 169.763 142.407 174.286 147.447C178.761 152.414 183.773 152.512 190.4 150.799L193.138 165.774C199.667 180.504 208.909 175.513 215.658 161.982Z" fill="white"/>
<path d="M202.527 175.906C207.368 175.906 212.405 171.159 216.708 162.498C216.806 162.302 216.855 162.082 216.831 161.861C215.51 148.404 214.361 138.47 214.092 136.194C217.735 131.398 217.735 122.932 217.613 120.192C224.802 117.182 229.985 112.24 231.575 106.857C232.724 102.966 231.941 98.9534 229.301 95.2587C227.369 92.5671 224.899 90.9767 221.941 90.5363C216.659 89.7533 211.842 92.9342 210.009 94.3533C208.688 95.381 207.563 96.4821 206.757 97.5587C204.947 94.7938 200.301 90.2671 189.347 90.4873C176.021 90.7809 168.441 95.2587 166.192 104.214C165.361 107.444 165.263 111.236 165.85 115.788C166.094 117.647 166.339 119.531 166.559 121.391C167.977 132.842 169.297 143.657 173.43 148.257C178.075 153.42 183.234 153.689 189.494 152.245L192.012 165.997C192.037 166.094 192.061 166.168 192.086 166.266C194.873 172.579 198.345 175.808 202.355 175.906C202.404 175.906 202.453 175.906 202.527 175.906ZM214.459 161.739C210.62 169.324 206.17 173.631 202.404 173.557C199.446 173.484 196.634 170.695 194.286 165.434L191.572 150.582C191.523 150.263 191.328 149.97 191.059 149.799C190.79 149.627 190.448 149.578 190.13 149.652C183.992 151.242 179.347 151.291 175.19 146.667C171.547 142.629 170.202 131.668 168.906 121.097C168.686 119.238 168.441 117.354 168.197 115.469C167.659 111.285 167.757 107.689 168.49 104.777C170.471 96.8736 177.122 93.081 189.421 92.8363C202.967 92.5182 205.461 100.006 205.558 100.324C205.705 100.788 206.121 101.131 206.61 101.156C207.099 101.18 207.563 100.911 207.759 100.446C208.273 99.2225 209.715 97.6076 211.476 96.2374C214.777 93.6927 218.591 92.4448 221.623 92.8852C223.921 93.2278 225.877 94.5001 227.418 96.6533C229.643 99.7853 230.303 102.991 229.35 106.196C227.931 110.992 222.797 115.641 215.975 118.308C215.486 118.504 215.192 118.968 215.241 119.482C215.241 119.58 216.024 130.273 211.965 135.069C211.745 135.313 211.647 135.631 211.696 135.974C211.696 136.096 212.967 146.667 214.459 161.739Z" fill="#1E1E23"/>
<path d="M179.641 129.783C179.983 129.783 180.301 129.636 180.545 129.367C180.961 128.877 180.912 128.119 180.423 127.703C176.291 124.204 176.12 118.894 179.787 107.492C179.983 106.88 179.641 106.22 179.029 106.024C178.418 105.828 177.758 106.171 177.562 106.782C174.115 117.524 173.234 124.693 178.907 129.513C179.103 129.709 179.372 129.783 179.641 129.783Z" fill="#1E1E23"/>
<path d="M188.86 112.771C188.527 112.032 188.855 111.162 189.594 110.829C190.332 110.495 191.201 110.823 191.535 111.562C191.868 112.301 191.54 113.171 190.801 113.505C190.063 113.838 189.194 113.51 188.86 112.771Z" fill="#1E1E23"/>
<path d="M170.009 114.556C169.676 113.817 170.004 112.947 170.743 112.614C171.481 112.28 172.35 112.609 172.684 113.348C173.017 114.086 172.689 114.956 171.95 115.29C171.212 115.624 170.343 115.295 170.009 114.556Z" fill="#1E1E23"/>
<path d="M194.897 133.158C197.881 132.669 199.617 129.708 198.492 126.87C197.929 125.475 200.081 124.497 200.644 125.891C202.331 130.149 199.837 134.724 195.289 135.483C193.748 135.728 193.382 133.428 194.897 133.158Z" fill="#1E1E23"/>
<path d="M186.414 104.409C186.487 103.748 187.074 103.332 187.71 103.356C188.37 103.381 189.03 103.405 189.666 103.405C190.302 103.43 190.766 104.091 190.717 104.702C190.644 105.363 190.057 105.779 189.421 105.754C188.761 105.73 188.101 105.705 187.465 105.705C186.805 105.681 186.34 104.996 186.414 104.409Z" fill="#1E1E23"/>
<path d="M169.86 104.947L171.205 104.336C172.574 103.724 173.552 105.853 172.183 106.489L170.838 107.101C169.444 107.712 168.491 105.584 169.86 104.947Z" fill="#1E1E23"/>
<path d="M213.09 111.139C213.726 111.139 214.239 110.649 214.264 110.013C214.337 107.909 217.051 102.159 220.841 101.278C221.477 101.131 221.868 100.495 221.721 99.859C221.574 99.2228 220.939 98.8313 220.303 98.9781C215.388 100.104 212.038 106.783 211.916 109.915C211.892 110.552 212.405 111.114 213.041 111.139C213.065 111.139 213.065 111.139 213.09 111.139Z" fill="#1E1E23"/>
<path d="M207.661 99.6377C206.096 102.403 202.453 100.91 200.399 99.6866C197 97.6558 194.433 94.5727 192.844 90.9759C192.257 89.6057 194.262 88.4067 194.873 89.777C194.995 90.0461 195.118 90.3153 195.264 90.5844C195.362 90.5599 195.436 90.511 195.533 90.511C198.932 90.3887 202.257 91.294 204.996 93.3738C206.757 94.744 209.006 97.2643 207.661 99.6377Z" fill="#1E1E23"/>
<path d="M244.999 165.213C245.561 165.213 246.05 164.821 246.148 164.234C246.271 163.598 245.83 162.986 245.195 162.864C245.048 162.839 229.644 160.099 215.584 160.784C214.948 160.808 214.435 161.371 214.459 162.007C214.484 162.643 215.022 163.182 215.682 163.133C229.472 162.448 244.608 165.139 244.755 165.164C244.877 165.188 244.95 165.213 244.999 165.213Z" fill="#1E1E23"/>
<path d="M162.818 273.682C163.43 273.682 163.943 273.217 163.992 272.605L170.252 193.108C170.3 192.472 169.811 191.884 169.176 191.835C168.54 191.786 167.953 192.276 167.904 192.912L161.645 272.41C161.596 273.046 162.085 273.633 162.721 273.682C162.769 273.682 162.794 273.682 162.818 273.682Z" fill="#1E1E23"/>
<path d="M253.605 276.03C253.629 276.03 253.654 276.03 253.678 276.03C254.314 276.006 254.827 275.443 254.778 274.783L254.191 263.821C254.167 263.16 253.605 262.695 252.944 262.72C252.309 262.744 251.795 263.307 251.844 263.968L252.431 274.929C252.48 275.541 252.993 276.03 253.605 276.03Z" fill="#1E1E23"/>
<path d="M50.0263 173.186C51.0532 172.991 51.7623 172.036 51.9579 171.033C53.9629 170.446 55.3077 170.226 54.4275 169.663C52.5203 168.415 50.6376 166.8 49.2927 164.867C49.3905 164.451 49.5128 164.06 49.635 163.644C49.9284 163.717 50.2219 163.766 50.5153 163.839C50.6865 163.13 51.4933 162.518 52.3491 162.934C59.6845 166.506 66.5798 170.74 73.0349 175.56C79.5145 182.68 86.1408 189.654 92.6204 196.749C84.5759 201.325 78.5853 207.931 74.7709 216.373C74.3553 217.327 73.1327 217.034 72.6437 216.373C69.245 211.871 66.3353 207.124 63.8901 202.157C63.939 201.839 63.9146 201.521 63.8412 201.178C63.4011 199.196 62.8143 197.239 62.203 195.306C62.3252 194.841 62.3497 194.327 62.2519 193.838C61.934 192.37 61.2494 190.999 60.6381 189.654C60.4425 189.213 60.1002 188.895 59.709 188.675C59.6601 188.773 59.6111 188.846 59.5133 188.944C58.2174 190.363 56.1635 190.608 54.4275 189.923C53.8896 189.727 53.425 189.433 52.9849 189.091C50.9065 187.916 49.1216 186.35 47.9479 184.001C46.383 180.894 46.3097 176.636 48.2658 173.602C48.7792 173.455 49.3661 173.309 50.0263 173.186Z" fill="white"/>
<path d="M74.6968 218.184C74.1344 217.279 73.572 216.373 72.9852 215.492C75.9438 207.345 87.6071 196.383 92.3995 194.67C93.0108 195.184 93.6465 195.698 94.2578 196.211C94.0867 196.505 93.8177 196.725 93.4509 196.799C89.8322 197.533 75.846 210.281 74.6724 218.111C74.7213 218.135 74.7213 218.16 74.6968 218.184Z" fill="#1E1E23"/>
<path d="M48.3138 172.406C49.2674 171.623 50.71 170.865 52.7639 170.645C52.984 170.987 53.2774 171.256 53.6442 171.452C54.5489 171.917 55.4291 172.431 56.2849 172.993C53.7175 172.578 51.248 173.067 49.8053 174.241C48.4361 175.367 47.8003 177.202 47.727 179.184C47.6047 181.753 48.9495 185.056 50.0743 184.812C50.5389 184.714 50.8323 184.102 50.8567 183.98C51.0034 183.319 50.8567 182.561 50.8323 181.9C50.8078 180.848 50.9545 179.845 51.5414 178.964C52.3238 177.789 54.231 178.89 53.4486 180.065C52.715 181.141 53.1796 182.487 53.0818 183.711C53.0084 184.665 52.715 185.619 52.0059 186.304C51.5658 186.72 51.0768 186.94 50.5633 187.014C50.6122 187.112 50.6611 187.185 50.71 187.283C50.6367 187.307 50.5633 187.307 50.4899 187.307C50.3677 187.307 50.2454 187.283 50.1232 187.259C50.0743 187.234 49.6097 187.087 49.0229 186.696C48.9495 186.647 48.8762 186.598 48.8028 186.549C47.458 185.595 45.5508 183.49 45.4041 179.282C45.2574 176.566 46.3577 173.997 48.3138 172.406Z" fill="#1E1E23"/>
<path d="M51.5909 175.561C53.6692 174.656 56.4322 174.069 59.9776 173.849C60.6134 173.824 61.1758 174.289 61.2247 174.95C61.2736 175.586 60.7845 176.149 60.1244 176.198C56.4811 176.442 53.7426 177.054 51.9332 178.008C51.9576 177.127 51.8354 176.295 51.5909 175.561Z" fill="#1E1E23"/>
<path d="M61.3953 179.573C60.7107 179.182 60.0505 178.815 59.3658 178.447C61.1263 177.958 63.2536 177.616 65.7721 177.444C66.4078 177.42 66.9702 177.885 67.0191 178.545C67.068 179.182 66.579 179.744 65.9188 179.793C64.5251 179.891 63.2536 180.038 62.1288 180.234C61.9332 179.965 61.6887 179.744 61.3953 179.573Z" fill="#1E1E23"/>
<path d="M50.1245 173.824C52.3496 172.821 54.8436 175.561 56.3596 176.809C59.3671 179.28 62.0568 182.045 64.5263 185.055C64.7953 185.373 64.8687 185.74 64.7953 186.082C64.8687 186.327 64.9665 186.547 65.0154 186.792C65.3821 188.749 64.0618 190.389 62.1546 190.634C59.3671 190.976 57.6066 188.431 56.0662 186.547C53.89 183.88 50.8826 181.14 49.2932 178.081C48.5841 176.638 48.3885 174.607 50.1245 173.824Z" fill="white"/>
<path d="M128.026 267.219C147.513 267.219 157.196 241.919 168.419 212.606C168.664 211.994 168.346 211.309 167.735 211.089C167.123 210.869 166.439 211.162 166.219 211.774C155.313 240.255 145.9 264.87 128.026 264.87C112.059 264.87 96.4591 244.855 82.7175 227.213C81.0304 225.06 79.3921 222.956 77.7784 220.925C66.8486 207.149 64.7458 199.833 63.3276 194.989C62.4229 191.832 61.6894 189.337 59.122 186.743C53.4738 181.091 50.0262 177.396 50.4663 174.264C51.2976 174.484 53.2293 175.732 54.6719 176.686C57.6794 178.668 61.4449 181.14 65.186 181.898C67.0932 182.29 68.7314 182.534 69.2449 181.262C69.8806 179.72 68.2913 178.595 60.5891 173.457C58.6819 172.184 56.5547 170.765 54.3296 169.248C51.3221 167.193 50.2707 164.795 50.3196 164.085C51.4199 163.938 56.2612 166.899 64.1834 171.744L67.9 174.019C73.0104 177.127 92.3513 196.726 106.46 211.015C124.016 228.804 124.04 228.779 125.14 228.315C125.409 228.217 125.629 227.996 125.752 227.752C125.898 227.458 132.354 215.395 143.528 189.899C154.189 165.602 162.771 162.764 191.99 161.908C192.626 161.883 193.139 161.345 193.139 160.709C193.115 160.048 192.528 159.559 191.941 159.559C163.113 160.391 152.844 162.862 141.376 188.969C132.109 210.061 126.143 221.904 124.285 225.501C121.84 223.299 115.14 216.521 108.122 209.401C93.1337 194.206 74.4774 175.316 69.0982 172.037L65.3815 169.762C52.1045 161.663 50.0751 160.415 48.3635 162.739C48.0945 163.082 47.8255 163.718 47.9967 164.746C48.2657 166.336 49.7328 169.003 52.9603 171.23C55.1854 172.771 57.3371 174.191 59.2443 175.463C61.4449 176.931 63.6944 178.424 65.2348 179.549C62.0562 178.766 58.6819 176.54 55.9434 174.753C52.887 172.747 50.8575 171.426 49.366 172.086C48.9014 172.282 48.339 172.747 48.1678 173.799C47.4343 178.155 51.2243 182.216 57.4593 188.456C59.611 190.609 60.1979 192.64 61.0781 195.674C62.5208 200.69 64.7214 208.275 75.9445 222.418C77.5583 224.449 79.1965 226.553 80.8592 228.682C94.9431 246.739 110.91 267.219 128.026 267.219Z" fill="#1E1E23"/>
<path d="M50.7347 185.863C50.8814 185.741 51.0526 185.618 51.1993 185.496C51.5661 186.597 52.593 188.799 53.889 187.967C54.7447 187.405 54.3535 185.887 53.9623 184.664C53.9868 184.689 54.0357 184.713 54.0601 184.737C54.6959 185.276 55.4294 185.545 56.1629 185.496C56.2852 186.059 56.3585 186.646 56.2852 187.258C56.1629 188.53 55.5027 189.68 54.4024 190.096C51.9084 191.026 50.1968 188.579 49.3655 186.23C49.8789 186.23 50.3191 186.108 50.7347 185.863Z" fill="#1E1E23"/>
<path d="M55.5035 188.945C56.2615 190.511 58.3888 189.63 57.8264 187.99C57.8264 187.966 57.802 187.917 57.802 187.893C58.3888 188.602 59.0001 189.287 59.6114 189.972C59.6603 190.021 59.7092 190.07 59.7581 190.119C59.4157 190.853 58.8045 191.44 58.0465 191.759C56.4082 192.444 54.4032 191.661 53.6208 190.07C52.9851 188.773 54.8923 187.672 55.5035 188.945Z" fill="#1E1E23"/>
</svg>
