<svg fill="none" height="370" viewBox="0 0 588 370" width="588" xmlns="http://www.w3.org/2000/svg">
<path d="M275.309 111.518H156.604V257.885H275.309V111.518Z" fill="white"/>
<path d="M275.309 110.428H156.604C156.013 110.428 155.512 110.928 155.512 111.52V257.887C155.512 258.479 156.013 258.979 156.604 258.979H275.309C275.9 258.979 276.401 258.479 276.401 257.887V111.52C276.401 110.928 275.9 110.428 275.309 110.428ZM274.217 256.818H157.696V112.612H274.217V256.818Z" fill="#1E1E23"/>
<path d="M167.982 246.51V102.514H284.314V246.51H167.982Z" fill="white" stroke="#1E1E23" stroke-width="2.37209"/>
<path d="M196.119 110.973C195.505 110.973 195.027 110.496 195.027 109.881V93.5021C195.027 92.8879 195.505 92.4102 196.119 92.4102C196.734 92.4102 197.211 92.8879 197.211 93.5021V109.881C197.211 110.496 196.711 110.973 196.119 110.973Z" fill="#1E1E23"/>
<path d="M226.421 110.973C225.807 110.973 225.329 110.496 225.329 109.881V93.5021C225.329 92.8879 225.807 92.4102 226.421 92.4102C227.035 92.4102 227.513 92.8879 227.513 93.5021V109.881C227.513 110.496 227.035 110.973 226.421 110.973Z" fill="#1E1E23"/>
<path d="M256.723 110.973C256.108 110.973 255.631 110.496 255.631 109.881V93.5021C255.631 92.8879 256.108 92.4102 256.723 92.4102C257.337 92.4102 257.815 92.8879 257.815 93.5021V109.881C257.815 110.496 257.337 110.973 256.723 110.973Z" fill="#1E1E23"/>
<path d="M243.073 153.035H191.729C191.114 153.035 190.637 152.558 190.637 151.944C190.637 151.329 191.114 150.852 191.729 150.852H243.073C243.688 150.852 244.165 151.329 244.165 151.944C244.165 152.558 243.688 153.035 243.073 153.035Z" fill="#1E1E23"/>
<path d="M250.535 196.192H191.729C191.114 196.192 190.637 195.714 190.637 195.1C190.637 194.486 191.114 194.008 191.729 194.008H250.535C251.149 194.008 251.627 194.486 251.627 195.1C251.627 195.714 251.149 196.192 250.535 196.192Z" fill="#1E1E23"/>
<path d="M253.447 162.319C253.242 162.319 253.06 162.273 252.878 162.16C252.355 161.841 252.196 161.181 252.514 160.658L262.888 143.733C263.206 143.21 263.866 143.05 264.389 143.369C264.913 143.687 265.072 144.347 264.753 144.87L254.38 161.796C254.175 162.137 253.834 162.319 253.447 162.319Z" fill="#1E1E23"/>
<path d="M278.949 114.978C278.084 114.978 277.22 114.887 276.401 114.727C276.037 114.659 275.673 114.568 275.309 114.454C274.945 114.341 274.581 114.227 274.217 114.09C273.238 113.704 272.306 113.203 271.441 112.612C270.964 112.27 270.509 111.906 270.076 111.52C269.69 111.178 269.348 110.814 269.007 110.428C267.028 108.13 265.822 105.127 265.822 101.874C265.822 101.692 265.822 101.51 265.845 101.328H263.661C263.661 101.51 263.661 101.692 263.661 101.874C263.661 105.036 264.639 107.994 266.277 110.428C266.528 110.814 266.801 111.178 267.096 111.52C267.415 111.906 267.733 112.27 268.074 112.612C269.781 114.318 271.874 115.637 274.217 116.411C274.581 116.524 274.945 116.638 275.309 116.729C275.673 116.82 276.037 116.888 276.401 116.957C277.22 117.093 278.084 117.161 278.949 117.161C281.292 117.161 283.521 116.638 285.5 115.683V113.203C283.567 114.341 281.337 114.978 278.949 114.978Z" fill="#1E1E23"/>
<path d="M182.154 222.873H128.885V276.143H182.154V222.873Z" fill="white"/>
<path d="M182.129 277.366H128.885C128.196 277.366 127.661 276.83 127.661 276.142V222.872C127.661 222.184 128.196 221.648 128.885 221.648H182.154C182.843 221.648 183.378 222.209 183.378 222.872V276.142C183.353 276.805 182.817 277.366 182.129 277.366ZM130.109 274.918H180.93V224.096H130.109V274.918Z" fill="#1E1E23"/>
<path d="M155.201 265.738C154.844 265.738 154.512 265.585 154.283 265.33L140.207 249.418C139.748 248.908 139.799 248.143 140.309 247.684C140.819 247.225 141.584 247.276 142.043 247.786L154.946 262.372L170.654 232.129C170.96 231.517 171.699 231.287 172.311 231.619C172.923 231.925 173.153 232.664 172.821 233.276L156.297 265.1C156.119 265.457 155.762 265.712 155.354 265.763C155.303 265.738 155.252 265.738 155.201 265.738Z" fill="#1E1E23"/>
<path d="M141.992 82.4192C139.952 80.1752 137.912 77.9312 135.872 75.6872C134.801 74.5142 133.093 76.2482 134.138 77.4212C136.178 79.6652 138.218 81.9092 140.258 84.1532C141.329 85.3262 143.038 83.5922 141.992 82.4192Z" fill="#1E1E23"/>
<path d="M98.4319 292.199C96.4174 289.929 94.4029 287.66 92.4139 285.39C91.3684 284.217 89.6344 285.951 90.6799 287.124C92.6944 289.394 94.7089 291.663 96.6979 293.933C97.7434 295.131 99.4774 293.372 98.4319 292.199Z" fill="#1E1E23"/>
<path d="M94.6324 299.647C92.7964 298.015 90.9604 296.383 89.1244 294.751C87.9514 293.706 86.2174 295.44 87.3904 296.485C89.2264 298.117 91.0624 299.749 92.8984 301.381C94.0714 302.427 95.8309 300.718 94.6324 299.647Z" fill="#1E1E23"/>
<path d="M419.694 85.5229L414.237 92.8924C413.293 94.1674 415.41 95.3914 416.353 94.1164C418.164 91.6684 420 89.1949 421.81 86.7469C422.754 85.4974 420.612 84.2734 419.694 85.5229Z" fill="#1E1E23"/>
<path d="M532.896 182.792C530.193 182.792 528 180.599 528 177.896C528 175.193 530.193 173 532.896 173C535.599 173 537.792 175.193 537.792 177.896C537.792 180.599 535.599 182.792 532.896 182.792ZM532.896 175.448C531.544 175.448 530.448 176.544 530.448 177.896C530.448 179.247 531.544 180.344 532.896 180.344C534.247 180.344 535.344 179.247 535.344 177.896C535.344 176.544 534.247 175.448 532.896 175.448Z" fill="#1E1E23"/>
<path d="M65.2311 211.769C65.0526 211.769 64.8741 211.743 64.7211 211.667C64.1091 211.386 63.8286 210.647 64.1091 210.035L84.9171 164.721C85.1976 164.109 85.9116 163.829 86.5491 164.109C87.1611 164.39 87.4416 165.129 87.1611 165.741L66.3531 211.055C66.1491 211.488 65.6901 211.769 65.2311 211.769Z" fill="#1E1E23"/>
<path d="M389.01 229.322C388.882 229.322 388.729 229.322 388.602 229.322C383.221 229.118 378.708 224.91 376.286 217.77L373.302 205.658C370.216 205.938 361.699 206.04 356.115 199.104C351.652 193.571 354.916 183.116 359.022 169.856C361.215 162.767 363.714 154.734 365.04 146.931C365.04 146.88 365.066 146.829 365.066 146.778C366.927 140.658 371.033 136.782 376.923 135.584C387.098 133.493 399.771 139.74 405.661 146.727C411.373 153.51 413.898 163.124 412.394 172.508C409.486 190.638 399.822 197.09 396.609 198.773L402.27 218.28C402.346 218.561 402.321 218.841 402.219 219.096C399.541 225.344 394.39 229.322 389.01 229.322ZM374.22 203.082C374.781 203.082 375.265 203.465 375.418 204.026L378.631 217.082C380.722 223.202 384.318 226.695 388.704 226.874C393.115 227.052 397.425 223.763 399.822 218.51L393.982 198.416C393.804 197.804 394.135 197.166 394.722 196.937C394.849 196.886 406.783 192.015 409.996 172.1C411.399 163.43 409.079 154.53 403.826 148.283C398.343 141.806 386.435 136.094 377.433 137.955C372.41 139.001 369.069 142.163 367.462 147.39C366.085 155.321 363.587 163.404 361.368 170.544C357.62 182.606 354.406 193.035 358.027 197.549C363.892 204.842 373.914 203.108 373.991 203.082C374.067 203.082 374.143 203.082 374.22 203.082Z" fill="#1E1E23"/>
<path d="M389.01 229.322C388.882 229.322 388.729 229.322 388.602 229.322C383.221 229.118 378.708 224.91 376.285 217.77L373.302 205.658C370.216 205.938 361.699 206.04 356.115 199.104C351.652 193.571 354.916 183.116 359.022 169.856C361.215 162.767 363.714 154.734 365.04 146.931C365.04 146.88 365.066 146.829 365.066 146.778C366.927 140.658 371.032 136.782 376.923 135.584C387.097 133.493 399.771 139.74 405.661 146.727C411.373 153.51 413.898 163.124 412.393 172.508C409.486 190.638 399.822 197.09 396.609 198.773L402.27 218.28C402.346 218.561 402.321 218.841 402.219 219.096C399.541 225.344 394.39 229.322 389.01 229.322ZM374.22 203.082C374.781 203.082 375.265 203.465 375.418 204.026L378.631 217.082C380.722 223.202 384.318 226.695 388.704 226.874C393.115 227.052 397.425 223.763 399.822 218.51L393.982 198.416C393.804 197.804 394.135 197.166 394.722 196.937C394.849 196.886 406.783 192.015 409.996 172.1C411.399 163.43 409.078 154.53 403.825 148.283C398.343 141.806 386.435 136.094 377.433 137.955C372.41 139.001 369.069 142.163 367.462 147.39C366.085 155.321 363.587 163.404 361.368 170.544C357.62 182.606 354.406 193.035 358.027 197.549C363.892 204.842 373.914 203.108 373.991 203.082C374.067 203.082 374.143 203.082 374.22 203.082Z" fill="#1E1E23"/>
<path d="M374.22 203.082C374.781 203.082 375.265 203.465 375.418 204.026L378.631 217.082C380.722 223.202 384.318 226.695 388.704 226.874C393.115 227.052 397.425 223.763 399.822 218.51L393.982 198.416C393.804 197.804 394.135 197.166 394.722 196.937C394.849 196.886 406.783 192.015 409.996 172.1C411.399 163.43 409.078 154.53 403.825 148.283C398.343 141.806 386.435 136.094 377.433 137.955C372.41 139.001 369.069 142.163 367.462 147.39C366.085 155.321 363.587 163.404 361.368 170.544C357.62 182.606 354.406 193.035 358.027 197.549C363.892 204.842 373.914 203.108 373.991 203.082H374.22Z" fill="white"/>
<path d="M411.195 172.278C408.39 189.745 398.445 197.625 395.436 199.206C393.778 198.67 393.243 197.344 392.019 195.942C389.622 193.213 388.984 189.337 388.857 185.308C399.898 186.532 406.35 181.662 405.559 173.196C405.049 167.739 398.394 162.18 388.168 166.515C388.806 160.369 388.627 154.198 386.358 148.792C383.935 143.08 379.167 139.714 373.684 137.929C383.17 133.365 398.062 139.561 404.743 147.492C410.251 154.02 412.623 163.378 411.195 172.278Z" fill="#1E1E23"/>
<path d="M355.911 180.286C355.554 180.286 355.197 180.133 354.942 179.827C350.25 173.809 353.182 169.78 358.512 162.436C359.455 161.136 360.475 159.708 361.572 158.127C361.954 157.566 362.72 157.438 363.281 157.821C363.842 158.203 363.969 158.968 363.586 159.529C362.49 161.136 361.445 162.564 360.501 163.864C354.942 171.54 353.488 173.962 356.88 178.323C357.288 178.858 357.212 179.623 356.676 180.031C356.447 180.184 356.166 180.286 355.911 180.286Z" fill="#1E1E23"/>
<path d="M392.096 186.734C389.775 186.734 387.251 186.428 384.548 185.842C383.885 185.689 383.477 185.051 383.63 184.388C383.783 183.725 384.42 183.292 385.083 183.47C392.376 185.077 398.216 184.363 401.556 181.43C403.698 179.543 404.667 176.738 404.336 173.372C404.106 171.026 402.551 168.782 400.23 167.482C396.813 165.569 392.223 165.85 387.327 168.272C386.715 168.578 385.976 168.323 385.695 167.711C385.389 167.099 385.644 166.36 386.256 166.079C393.855 162.305 399.032 163.988 401.429 165.34C404.463 167.023 406.478 169.955 406.784 173.117C407.192 177.325 405.942 180.818 403.188 183.266C400.562 185.536 396.737 186.734 392.096 186.734Z" fill="#1E1E23"/>
<path d="M383.935 135.584C378.096 134.334 364.836 126.684 363.306 136.706C362.719 140.607 365.856 143.642 369.018 145.223C375.342 148.41 382.15 148.181 384.19 156.264C384.955 159.35 386.026 165.266 389.647 166.439C392.58 167.382 394.237 163.251 395.104 160.625C397.858 152.363 390.973 138.465 383.935 135.584Z" fill="#1E1E23"/>
<path d="M396.124 173.375C393.192 172.712 390.31 173.859 388.602 176.307C387.709 177.608 389.826 178.832 390.718 177.531C391.789 176.001 393.676 175.313 395.487 175.721C396.991 176.103 397.654 173.732 396.124 173.375Z" fill="#1E1E23"/>
<path d="M367.641 160.268C365.856 160.268 365.856 163.022 367.641 163.022C369.4 163.022 369.426 160.268 367.641 160.268Z" fill="#1E1E23"/>
<path d="M371.032 155.88C370.216 155.676 369.4 155.472 368.584 155.268C367.054 154.886 366.391 157.257 367.921 157.64C368.737 157.844 369.553 158.048 370.369 158.252C371.899 158.634 372.562 156.263 371.032 155.88Z" fill="#1E1E23"/>
<path d="M369.171 185.844C368.1 187.195 366.493 187.731 364.861 187.221C363.357 186.736 362.719 189.108 364.198 189.592C366.595 190.357 369.324 189.567 370.905 187.578C371.874 186.354 370.165 184.62 369.171 185.844Z" fill="#1E1E23"/>
<path d="M436.312 181.253C432.232 174.138 433.456 167.177 431.646 159.552C428.127 144.711 412.342 146.547 400.995 150.015C399.49 150.474 400.128 152.846 401.658 152.387C402.448 152.157 403.239 151.902 404.055 151.673C403.29 154.019 403.978 156.594 405.712 158.328C406.656 159.272 407.14 155.982 406.834 154.962C409.588 154.962 411.73 155.982 413.26 157.41C419.661 163.377 412.75 178.805 414.459 186.812C416.575 196.706 430.294 205.503 437.638 194.895C440.979 189.999 438.939 185.817 436.312 181.253Z" fill="#1E1E23"/>
<path d="M409.997 324.108C409.793 324.108 409.589 324.057 409.41 323.955C407.6 322.961 406.605 320.845 406.962 318.805C407.319 316.816 408.824 315.439 411.017 315.107L411.272 315.082C415.199 314.47 420.554 313.653 427.949 317.963C428.535 318.294 428.739 319.059 428.382 319.646C428.051 320.232 427.286 320.437 426.699 320.08C420.069 316.204 415.377 316.918 411.629 317.504L411.374 317.53C410.252 317.708 409.538 318.32 409.359 319.238C409.181 320.258 409.691 321.303 410.583 321.813C411.17 322.145 411.399 322.884 411.068 323.471C410.838 323.879 410.43 324.108 409.997 324.108Z" fill="#1E1E23"/>
<path d="M409.104 318.14C408.9 318.14 408.696 318.089 408.518 317.987C406.707 316.992 405.713 314.876 406.07 312.836C406.427 310.847 407.931 309.47 410.124 309.138L410.354 309.113C414.281 308.501 419.636 307.685 427.031 311.994C427.617 312.326 427.821 313.091 427.464 313.677C427.133 314.264 426.368 314.468 425.781 314.111C419.151 310.235 414.459 310.949 410.711 311.535L410.456 311.561C409.334 311.739 408.62 312.351 408.441 313.269C408.263 314.289 408.773 315.335 409.665 315.845C410.252 316.176 410.481 316.916 410.15 317.502C409.946 317.91 409.538 318.14 409.104 318.14Z" fill="#1E1E23"/>
<path d="M408.798 312.172C408.594 312.172 408.39 312.121 408.212 312.019C406.401 311.025 405.407 308.908 405.764 306.868C406.121 304.879 407.625 303.502 409.818 303.171C413.694 302.584 423.384 303.349 430.652 306.715L425.807 259.719C425.756 259.311 425.934 258.903 426.24 258.648C426.546 258.393 426.98 258.291 427.362 258.418C431.723 259.719 470.126 271.219 473.16 273.03C473.492 273.234 473.696 273.565 473.747 273.922C473.798 274.305 473.67 274.662 473.39 274.942C465.842 282.567 441.03 307.531 439.194 308.449C438.735 308.679 438.225 308.73 437.766 308.551C436.772 308.194 436.262 307.123 435.624 305.772C434.91 304.242 434.069 302.431 432.564 301.513L433.304 308.704C433.355 309.163 433.125 309.597 432.743 309.852C432.36 310.107 431.85 310.107 431.468 309.877C424.71 305.925 414.026 304.956 410.175 305.542C409.053 305.721 408.339 306.333 408.161 307.251C407.982 308.271 408.492 309.316 409.385 309.826C409.971 310.158 410.201 310.897 409.869 311.484C409.665 311.943 409.232 312.172 408.798 312.172ZM432.284 298.759C435.471 299.652 436.899 302.712 437.868 304.752C438.047 305.16 438.302 305.644 438.48 306.001C441.515 303.451 458.472 286.57 470.406 274.534C464.465 272.29 443.529 265.864 428.433 261.325L432.284 298.759Z" fill="#1E1E23"/>
<path d="M437.358 339.764C432.819 339.764 429.224 336.959 425.73 334.231C422.517 331.732 419.457 329.36 416.015 329.488C410.073 329.717 408.467 327.32 408.033 325.892C407.574 324.362 408.161 322.577 409.385 321.863C411.578 320.537 419.891 319.466 427.413 324.592C427.974 324.974 428.127 325.739 427.745 326.3C427.362 326.861 426.597 327.014 426.036 326.632C419.177 321.965 411.884 323.24 410.634 323.98C410.507 324.056 410.175 324.592 410.379 325.229C410.762 326.504 412.853 327.193 415.913 327.065C420.222 326.912 423.792 329.666 427.209 332.344C430.728 335.098 434.094 337.699 438.123 337.316C440.979 337.061 450.797 331.502 481.32 306.436C495.549 294.757 508.784 282.874 509.396 275.02C510.849 255.971 488.945 247.964 458.6 236.897L455.259 235.673C429.734 226.34 419.508 223.127 400.842 219.812C400.179 219.685 399.72 219.047 399.848 218.384C399.975 217.721 400.587 217.288 401.276 217.39C420.095 220.73 430.422 223.969 456.101 233.353L459.441 234.577C490.781 246.026 513.425 254.288 511.818 275.198C511.104 284.429 496.493 297.128 482.85 308.323C449.241 335.914 441.336 339.458 438.327 339.739C438.021 339.764 437.69 339.764 437.358 339.764Z" fill="#1E1E23"/>
<path d="M457.427 269.614C457.07 269.614 456.687 269.461 456.458 269.129C456.05 268.594 456.152 267.829 456.687 267.421C456.815 267.319 468.443 258.139 468.443 240.238C468.443 239.549 468.978 239.014 469.667 239.014C470.355 239.014 470.891 239.575 470.891 240.238C470.891 259.388 458.676 268.976 458.166 269.359C457.962 269.537 457.682 269.614 457.427 269.614Z" fill="#1E1E23"/>
<path d="M323.552 268.798C323.476 268.798 323.399 268.798 323.323 268.773C322.66 268.645 322.226 268.008 322.354 267.345C322.379 267.141 326.077 247.531 330.335 230.548C334.9 212.265 348.032 211.321 377.638 216.166C378.301 216.268 378.76 216.906 378.658 217.569C378.556 218.232 377.918 218.691 377.255 218.589C347.905 213.795 336.761 214.968 332.732 231.135C328.499 248.041 324.827 267.6 324.776 267.804C324.649 268.39 324.139 268.798 323.552 268.798Z" fill="#1E1E23"/>
<path d="M348.159 274.23C348.261 273.312 348.389 272.394 348.542 271.476C347.394 268.799 344.487 266.835 342.065 265.586C336.531 262.755 327.912 260.919 323.654 262.959C323.042 263.24 322.787 263.979 323.067 264.591C323.348 265.203 324.087 265.458 324.699 265.178C327.734 263.724 335.46 264.974 340.943 267.779C344.232 269.462 346.221 271.425 346.553 273.287C346.655 273.873 347.165 274.307 347.751 274.307C347.828 274.307 347.904 274.307 347.981 274.281C348.032 274.281 348.083 274.256 348.159 274.23Z" fill="#1E1E23"/>
<path d="M326 287.157C325.413 287.157 324.878 286.723 324.801 286.111C324.699 285.423 314.321 216.114 306.62 204.562C306.237 204.001 306.39 203.236 306.951 202.854C307.512 202.471 308.277 202.624 308.66 203.185C316.641 215.17 326.79 282.847 327.224 285.729C327.326 286.392 326.867 287.029 326.204 287.131C326.127 287.157 326.076 287.157 326 287.157Z" fill="#1E1E23"/>
<path d="M315.239 203.006L310.522 201.221C310.216 201.093 309.884 201.119 309.578 201.246C309.272 201.374 309.042 201.629 308.94 201.935L304.707 213.104C304.478 213.741 304.784 214.455 305.422 214.685L310.139 216.47C310.981 216.776 311.848 216.954 312.689 216.954C313.684 216.954 314.678 216.75 315.622 216.317C317.381 215.526 318.707 214.098 319.395 212.313C320.823 208.59 318.962 204.434 315.239 203.006Z" fill="white"/>
<path d="M269.186 185.996C268.982 185.359 268.293 185.002 267.656 185.206L258.731 188.036C258.374 188.138 258.093 188.419 257.966 188.75C257.838 189.082 257.864 189.49 258.042 189.796L262.734 198.134C262.964 198.542 263.372 198.746 263.805 198.746C264.009 198.746 264.213 198.695 264.392 198.593C264.978 198.262 265.182 197.522 264.851 196.936L264.341 196.043L267.452 187.832L268.37 187.552C269.033 187.322 269.415 186.634 269.186 185.996Z" fill="#1E1E23"/>
<path d="M311.21 201.856C311.082 201.55 310.827 201.321 310.521 201.219L268.472 185.23C267.834 185.001 267.12 185.307 266.891 185.944L262.658 197.113C262.53 197.419 262.556 197.751 262.683 198.057C262.811 198.363 263.066 198.592 263.372 198.694L305.421 214.683C305.574 214.734 305.702 214.759 305.855 214.759C306.339 214.759 306.824 214.453 307.002 213.969L311.235 202.8C311.363 202.494 311.337 202.162 311.21 201.856Z" fill="#1E1E23"/>
<path d="M259.088 190.408C258.935 190.408 258.808 190.382 258.655 190.331L254.065 188.597C253.427 188.368 253.121 187.654 253.351 187.016C253.58 186.379 254.294 186.073 254.932 186.302L259.522 188.036C260.159 188.266 260.465 188.98 260.236 189.617C260.057 190.127 259.598 190.408 259.088 190.408Z" fill="#1E1E23"/>
<path d="M293.36 210.273V246.33H291.116C289.025 235.059 288.209 229.806 286.832 224.4C282.14 205.734 274.745 199.742 278.57 198.084C281.579 196.758 286.781 208.055 293.36 210.273Z" fill="white"/>
<path d="M326.357 322.043C324.24 322.043 322.022 321.839 319.676 321.431C301.137 318.167 296.879 293.05 293.105 270.916C292.442 267.014 291.804 263.342 291.116 259.849C288.438 246.308 287.648 239.194 287.087 233.992C286.679 230.371 286.398 227.77 285.633 224.71C283.236 215.147 279.896 209.078 277.677 205.075C275.51 201.122 274.082 198.521 276.632 196.762C279.972 194.467 282.981 198.496 285.914 202.397C288.617 206.018 291.702 210.098 294.711 209.435C295.374 209.282 296.037 209.716 296.165 210.353C296.318 211.016 295.884 211.679 295.247 211.807C290.682 212.827 287.087 208.058 283.95 203.851C281.298 200.306 279.335 197.858 278.034 198.751C277.371 199.21 278.009 200.51 279.845 203.851C282.114 207.956 285.531 214.178 288.03 224.072C288.846 227.311 289.152 229.988 289.56 233.686C290.121 238.837 290.912 245.875 293.564 259.339C294.252 262.858 294.89 266.555 295.553 270.457C299.174 291.8 303.305 316 320.135 318.983C332.273 321.125 340.79 317.224 345.456 307.432C345.737 306.82 346.476 306.565 347.088 306.845C347.7 307.126 347.955 307.865 347.675 308.477C343.365 317.504 336.225 322.043 326.357 322.043Z" fill="#1E1E23"/>
<path d="M283.619 189.953C283.619 189.953 280.074 190.59 276.861 191.559C272.73 192.809 273.138 186.026 281.579 185.541C285.455 185.337 289.509 188.984 289.943 193.701" fill="white"/>
<path d="M289.943 194.923C289.306 194.923 288.796 194.439 288.719 193.801C288.337 189.568 284.614 186.559 281.63 186.763C277.984 186.967 276.122 188.446 275.638 189.619C275.485 190.002 275.51 190.308 275.587 190.384C275.663 190.461 275.969 190.537 276.505 190.359C279.743 189.39 283.262 188.752 283.39 188.727C284.053 188.599 284.69 189.058 284.818 189.721C284.945 190.384 284.486 191.022 283.823 191.149C283.798 191.149 280.304 191.787 277.193 192.73C275.791 193.164 274.541 192.909 273.751 192.042C272.986 191.2 272.833 189.951 273.368 188.701C274.159 186.763 276.734 184.596 281.503 184.315C286.195 184.06 290.683 188.395 291.167 193.597C291.218 194.26 290.734 194.872 290.071 194.923C290.02 194.923 289.994 194.923 289.943 194.923Z" fill="#1E1E23"/>
<path d="M287.648 192.195C287.648 192.195 284.103 192.833 280.89 193.802C276.759 195.051 277.167 188.268 285.608 187.784C289.484 187.58 293.538 191.226 293.972 195.944" fill="white"/>
<path d="M293.972 197.168C293.334 197.168 292.824 196.683 292.748 196.046C292.365 191.813 288.693 188.804 285.659 189.008C282.012 189.212 280.151 190.691 279.666 191.864C279.513 192.246 279.539 192.552 279.615 192.629C279.692 192.705 279.998 192.782 280.533 192.603C283.772 191.634 287.291 190.997 287.418 190.971C288.081 190.844 288.719 191.303 288.846 191.966C288.974 192.629 288.515 193.266 287.852 193.394C287.826 193.394 284.333 194.031 281.222 194.975C279.819 195.408 278.57 195.153 277.779 194.286C277.014 193.445 276.861 192.195 277.397 190.946C278.187 189.008 280.737 186.84 285.531 186.56C290.198 186.305 294.711 190.64 295.196 195.842C295.247 196.505 294.762 197.117 294.099 197.168C294.048 197.168 293.997 197.168 293.972 197.168Z" fill="#1E1E23"/>
<path d="M292.136 194.133C292.136 194.133 288.591 194.771 285.378 195.74C281.247 196.989 281.655 190.206 290.096 189.722C292.875 189.569 295.782 191.43 297.338 194.235" fill="white"/>
<path d="M284.435 197.118C283.568 197.118 282.828 196.812 282.293 196.225C281.528 195.384 281.375 194.134 281.91 192.885C282.701 190.947 285.251 188.779 290.045 188.499C293.283 188.32 296.624 190.386 298.434 193.65C298.766 194.236 298.536 194.976 297.95 195.307C297.363 195.639 296.624 195.435 296.292 194.823C294.941 192.375 292.493 190.794 290.198 190.947C286.551 191.151 284.69 192.63 284.205 193.803C284.052 194.185 284.078 194.491 284.154 194.568C284.231 194.644 284.537 194.721 285.072 194.542C288.311 193.573 291.83 192.936 291.957 192.91C292.62 192.783 293.258 193.242 293.385 193.905C293.513 194.568 293.054 195.205 292.391 195.333C292.365 195.333 288.872 195.97 285.761 196.914C285.276 197.041 284.843 197.118 284.435 197.118Z" fill="#1E1E23"/>
<path d="M296.496 196.071C296.496 196.071 292.952 196.709 289.739 197.678C285.608 198.927 286.016 192.144 294.456 191.66C298.332 191.456 304.988 194.516 306.416 199.616L296.496 196.071Z" fill="white"/>
<path d="M306.416 200.841C305.88 200.841 305.396 200.484 305.243 199.948C304.019 195.588 298.026 192.706 294.533 192.885C290.886 193.089 289.025 194.568 288.54 195.741C288.387 196.123 288.413 196.429 288.489 196.506C288.566 196.582 288.872 196.659 289.407 196.48C292.646 195.511 296.165 194.874 296.292 194.848C296.955 194.721 297.593 195.18 297.72 195.843C297.848 196.506 297.389 197.143 296.726 197.271C296.7 197.271 293.207 197.908 290.096 198.852C288.693 199.26 287.444 199.03 286.653 198.163C285.888 197.322 285.735 196.072 286.271 194.823C287.061 192.885 289.637 190.717 294.405 190.437C298.715 190.207 306.008 193.522 307.614 199.285C307.793 199.948 307.41 200.611 306.773 200.79C306.645 200.815 306.518 200.841 306.416 200.841Z" fill="#1E1E23"/>
<path d="M387.99 320.104C367.666 320.104 348.057 315.973 347.776 315.897C347.113 315.744 346.705 315.106 346.833 314.443C346.986 313.78 347.623 313.372 348.286 313.5C348.643 313.576 384.267 321.099 408.823 315.718C409.486 315.565 410.124 315.999 410.277 316.662C410.43 317.325 409.996 317.988 409.333 318.115C402.729 319.569 395.308 320.104 387.99 320.104Z" fill="#1E1E23"/>
<path d="M379.881 334.309C379.218 334.309 378.682 333.799 378.657 333.136L378.045 319.06C378.019 318.397 378.529 317.811 379.218 317.785C379.906 317.785 380.467 318.27 380.493 318.958L381.105 333.034C381.13 333.697 380.62 334.284 379.932 334.309C379.906 334.309 379.906 334.309 379.881 334.309Z" fill="#1E1E23"/>
<path d="M371.925 333.695C371.262 333.695 370.726 333.185 370.701 332.522L370.089 318.446C370.063 317.783 370.573 317.196 371.262 317.171C371.925 317.145 372.511 317.655 372.537 318.344L373.149 332.42C373.174 333.083 372.664 333.669 371.976 333.695C371.95 333.695 371.95 333.695 371.925 333.695Z" fill="#1E1E23"/>
<path d="M386.919 326.631C366.646 326.631 348.082 323.316 347.827 323.265C347.164 323.138 346.731 322.5 346.833 321.837C346.96 321.174 347.598 320.741 348.261 320.843C348.592 320.894 382.023 326.886 407.854 322.679C408.517 322.551 409.155 323.036 409.257 323.699C409.359 324.362 408.9 324.999 408.237 325.101C401.403 326.223 394.059 326.631 386.919 326.631Z" fill="#1E1E23"/>
<path d="M346.221 339.815C345.941 339.815 345.686 339.713 345.456 339.56C345.15 339.331 344.972 338.974 344.997 338.591L346.425 244.318C346.425 243.655 346.986 243.119 347.649 243.119C347.649 243.119 347.649 243.119 347.675 243.119C348.338 243.119 348.899 243.68 348.873 244.369L347.471 336.908C354.101 333.95 355.809 324.26 355.835 324.158C355.937 323.495 356.574 323.036 357.237 323.164C357.9 323.266 358.359 323.903 358.232 324.566C358.13 325.102 355.937 337.418 346.502 339.841C346.425 339.79 346.323 339.815 346.221 339.815Z" fill="#1E1E23"/>
<path d="M425.373 343.232C409.308 343.232 402.092 326.377 402.015 326.198C401.76 325.586 402.041 324.847 402.678 324.592C403.316 324.337 404.03 324.617 404.285 325.255C404.591 325.994 412.113 343.487 429.275 340.427C429.938 340.3 430.575 340.759 430.703 341.422C430.83 342.085 430.371 342.722 429.708 342.85C428.178 343.13 426.75 343.232 425.373 343.232Z" fill="#1E1E23"/>
</svg>
