<svg fill="none" height="317" viewBox="0 0 294 317" width="294" xmlns="http://www.w3.org/2000/svg">
<path d="M89.44 244.512C89.4186 244.512 89.3758 244.512 89.3544 244.512C88.798 244.47 88.3701 243.958 88.4129 243.404C88.4343 243.169 90.5313 219.405 95.6027 182.468C100.717 145.212 107.714 135.578 159.819 133.788C160.396 133.745 160.867 134.214 160.889 134.768C160.91 135.322 160.461 135.813 159.904 135.834C109.019 137.582 102.664 146.278 97.6569 182.745C92.5855 219.639 90.4885 243.361 90.4671 243.596C90.4243 244.107 89.9749 244.512 89.44 244.512Z" fill="#1E1E23"/>
<path d="M140.989 137.049H128.664V172.877H140.989V137.049Z" fill="#1E1E23"/>
<path d="M200.903 133.98H199.555V172.878H211.881V137.604C208.243 136.368 204.52 135.323 200.903 133.98Z" fill="#1E1E23"/>
<path d="M108.636 181.487L140.348 169.658L147.495 269.427L115.783 281.256L108.636 181.487Z" fill="white"/>
<path d="M140.583 187.519L140.434 185.302L140.583 187.519L146.404 268.745L140.583 187.519ZM148.522 269.342L148.458 268.532L144.435 212.456L142.616 187.071L142.466 184.94L141.461 170.852L141.375 169.807L141.354 169.573C141.332 169.296 141.204 169.04 140.99 168.848C140.947 168.827 140.926 168.806 140.883 168.784C140.754 168.699 140.626 168.656 140.476 168.635C140.369 168.614 140.262 168.614 140.155 168.635C140.134 168.635 140.134 168.635 140.113 168.635C140.091 168.635 140.07 168.635 140.048 168.656C140.027 168.656 139.984 168.678 139.963 168.678L128.814 172.834L124.941 174.283L108.529 180.4L108.272 180.507C107.93 180.635 107.673 180.933 107.63 181.295C107.609 181.381 107.609 181.466 107.609 181.551L107.673 182.34L112.701 252.462L112.851 254.593L113.45 262.905L114.67 279.999L114.756 281.043L114.777 281.299C114.798 281.619 114.97 281.917 115.248 282.088C115.355 282.152 115.505 282.215 115.633 282.237C115.654 282.237 115.697 282.237 115.719 282.258C115.74 282.258 115.783 282.258 115.804 282.258C115.868 282.258 115.933 282.258 115.975 282.237C115.997 282.237 116.018 282.237 116.04 282.215C116.082 282.194 116.125 282.194 116.168 282.173L147.602 270.45L147.859 270.365C148.222 270.237 148.458 269.918 148.522 269.555C148.522 269.491 148.522 269.427 148.522 269.342ZM114.884 254.401L114.734 252.312L109.706 182.169L125.647 176.223L134.677 172.855L139.406 171.086L139.535 172.855L140.434 185.302L140.583 187.519L146.404 268.745L116.703 279.828L115.483 262.948L114.884 254.401ZM140.583 187.519L140.434 185.302L140.583 187.519L146.404 268.745L140.583 187.519Z" fill="#1E1E23"/>
<path d="M186.311 176.415L140.347 169.658L147.494 269.427L193.458 276.184L186.311 176.415Z" fill="white"/>
<path d="M186.311 176.413L217.98 164.137L225.127 263.906L193.458 276.183L186.311 176.413Z" fill="white"/>
<path d="M210.856 269.406C210.3 269.406 209.85 268.979 209.829 268.425L209.144 247.282C209.123 246.856 209.379 246.493 209.743 246.323L222.069 240.867C222.582 240.632 223.203 240.867 223.417 241.378C223.652 241.89 223.417 242.508 222.903 242.721L211.198 247.9L211.862 268.361C211.883 268.915 211.434 269.406 210.877 269.427C210.877 269.406 210.877 269.406 210.856 269.406Z" fill="#1E1E23"/>
<path d="M115.783 281.254L108.636 181.485L77.8864 176.178C77.9934 176.072 78.1004 175.986 78.186 175.88C78.9135 175.027 79.3415 173.983 79.3201 172.853C79.2987 171.809 78.3144 171.361 77.5227 171.553C77.2873 171.553 77.0519 171.596 76.7951 171.745C75.8322 172.278 74.9763 173.002 74.3557 173.898C74.0134 174.388 73.885 174.963 73.9706 175.496L69.3913 174.707L69.7551 179.908C65.668 186.92 63.1859 194.742 62.3727 202.82C61.9662 206.955 62.0303 211.111 62.5653 215.225C63.0789 219.146 63.9348 223.196 66.1816 226.521C67.9149 229.079 70.504 231.167 73.4784 231.956L76.5169 274.455L115.783 281.254Z" fill="white"/>
<path d="M90.2965 277.59C89.7615 277.59 89.3122 277.185 89.2694 276.652L84.4762 217.294C84.4548 216.974 84.5832 216.676 84.8186 216.463C85.0539 216.249 85.3749 216.143 85.6959 216.207L97.3365 218.253C97.7859 218.338 98.1282 218.7 98.171 219.169L101.188 250.138L113.556 252.674L135.789 246.152L131.06 190.694C131.017 190.268 131.253 189.884 131.616 189.693L141.203 184.918C141.417 184.812 141.652 184.79 141.866 184.833L161.381 188.925C161.831 189.011 162.152 189.394 162.194 189.842L164.527 219.766L174.712 221.663C175.269 221.77 175.633 222.302 175.526 222.857C175.419 223.411 174.884 223.773 174.327 223.667L163.371 221.62C162.922 221.535 162.58 221.152 162.537 220.704L160.204 190.758L141.781 186.9L133.136 191.206L137.865 246.792C137.908 247.282 137.608 247.73 137.137 247.857L113.856 254.678C113.685 254.72 113.514 254.742 113.364 254.699L100.011 251.971C99.5619 251.886 99.241 251.523 99.1982 251.076L96.181 220.128L86.616 218.445L91.3022 276.482C91.345 277.036 90.917 277.547 90.3607 277.59C90.3607 277.59 90.3393 277.59 90.2965 277.59Z" fill="#1E1E23"/>
<path d="M181.796 226.736C179.292 224.242 174.799 219.766 172.295 217.272C171.353 216.334 169.898 217.784 170.84 218.722C173.343 221.215 177.837 225.691 180.341 228.185C181.282 229.101 182.737 227.652 181.796 226.736Z" fill="#1E1E23"/>
<path d="M179.657 217.847C176.811 220.682 173.943 223.538 171.097 226.372C170.156 227.31 171.611 228.76 172.552 227.822L181.112 219.296C182.053 218.38 180.598 216.931 179.657 217.847Z" fill="#1E1E23"/>
<path d="M72.9002 209.705L72.836 208.639C72.515 208.746 72.1941 208.874 71.8517 209.001V209.364L71.8945 210.067L71.9587 211.133C72.1085 211.069 72.2797 211.005 72.4508 210.941C72.6006 210.877 72.7504 210.834 72.9216 210.771C72.943 210.771 72.943 210.749 72.9644 210.749L72.9002 209.705ZM72.4722 203.609C72.2155 203.694 71.9587 203.801 71.7019 203.886V204.249L72.515 204.291L72.4722 203.609ZM72.0443 197.641L72.0229 197.322L71.9373 196.171C71.8945 196.192 71.8303 196.235 71.7875 196.256C71.6805 196.32 71.5735 196.384 71.4665 196.448L71.5093 197.641C71.2953 197.769 71.1456 197.876 71.0386 197.961V198.004C71.2097 197.94 71.3595 197.876 71.5093 197.833L71.5521 198.92C71.7447 198.856 71.9373 198.771 72.1299 198.707L72.0443 197.641ZM71.3167 191.354L71.5949 191.46L71.5093 190.203L71.4451 189.244V189.137L71.3595 188.071L71.3167 187.517L71.2953 187.304L71.1669 185.599C70.8674 186.047 70.6534 186.409 70.5036 186.643C70.4822 186.665 70.4608 186.686 70.4608 186.707C70.3752 186.835 70.3324 186.899 70.3324 186.899L71.1884 187.453L71.2097 188.114C70.9102 188.221 70.632 188.327 70.3324 188.434L70.3966 189.329L70.418 189.5L70.5036 190.565C70.7604 190.459 71.0386 190.373 71.2953 190.267L71.3167 191.354ZM116.809 281.169L116.788 280.871L116.702 279.805L115.483 262.925L114.883 254.4L114.734 252.311L109.705 182.168L109.641 181.4C109.641 181.294 109.62 181.209 109.577 181.123C109.448 180.782 109.149 180.526 108.785 180.463L108.507 180.42L98.2143 178.651L96.1815 178.31L79.876 175.496L78.8275 175.326L77.779 175.155L74.0557 174.516L72.836 174.303L71.6377 174.09L69.4765 173.727C69.1555 173.663 68.8559 173.77 68.6206 173.983C68.3852 174.196 68.2568 174.495 68.2782 174.814L68.535 178.331L68.6634 180.122L68.7917 181.976L69.2839 188.86L69.3267 189.5L69.3481 189.926L69.4123 190.65L69.4337 190.991L69.9045 197.62L69.99 198.728L70.311 203.311L70.4394 205.229L70.739 209.406L70.8246 210.472L70.9102 211.538L71.1884 215.374L71.3167 217.165L71.4023 218.337L71.4879 219.552L72.2583 230.187L72.3438 231.232L72.408 232.276L74.6121 262.989L75.4466 274.605C75.4894 275.074 75.8318 275.457 76.3025 275.543L115.611 282.256C115.632 282.256 115.675 282.256 115.697 282.278C115.718 282.278 115.761 282.278 115.782 282.278C115.846 282.278 115.911 282.278 115.953 282.256C115.975 282.256 115.996 282.256 116.018 282.235C116.06 282.214 116.103 282.214 116.146 282.193C116.253 282.15 116.36 282.086 116.446 282.001C116.702 281.788 116.831 281.489 116.809 281.169ZM91.2813 275.99L89.1842 275.628L77.4794 273.603L76.7091 262.925L73.4994 218.252L73.4138 217.143L73.3282 216.035L73.157 213.733L72.943 210.749L72.8574 209.684L72.7932 208.618L72.515 204.632L72.4936 204.249L72.4508 203.567L72.3653 202.501L72.0871 198.664L72.0229 197.599L72.0015 197.279L71.9159 196.128L71.5735 191.418L71.4879 190.16L71.4237 189.201V189.095L71.3381 188.029L71.2953 187.475L71.2739 187.262L71.1456 185.556L70.6534 178.757L70.5464 177.138L70.4608 175.923L71.3381 176.072L72.4722 176.264L76.6235 176.988L77.7148 177.18L78.8061 177.372L95.8819 180.313L97.9147 180.654L107.63 182.338L112.658 252.46L112.808 254.591L113.407 262.904L114.627 279.997L91.2813 275.99ZM71.5093 190.203L71.4451 189.244V189.137L71.3595 188.071L71.3167 187.517L71.2953 187.304L71.1669 185.599C70.8674 186.047 70.6534 186.409 70.5036 186.643C70.4822 186.665 70.4608 186.686 70.4608 186.707C70.3752 186.835 70.3324 186.899 70.3324 186.899L71.1884 187.453L71.2097 188.114C70.9102 188.221 70.632 188.327 70.3324 188.434L70.3966 189.329L70.418 189.5L70.5036 190.565C70.7604 190.459 71.0386 190.373 71.2953 190.267L71.3167 191.332L71.5949 191.439L71.5093 190.203ZM72.0443 197.641L72.0229 197.322L71.9373 196.171C71.8945 196.192 71.8303 196.235 71.7875 196.256C71.6805 196.32 71.5735 196.384 71.4665 196.448L71.5093 197.641C71.2953 197.769 71.1456 197.876 71.0386 197.961V198.004C71.2097 197.94 71.3595 197.876 71.5093 197.833L71.5521 198.92C71.7447 198.856 71.9373 198.771 72.1299 198.707L72.0443 197.641ZM72.4722 203.609C72.2155 203.694 71.9587 203.801 71.7019 203.886V204.249L72.515 204.291L72.4722 203.609ZM72.9002 209.705L72.836 208.639C72.515 208.746 72.1941 208.874 71.8517 209.001V209.364L71.8945 210.067L71.9587 211.133C72.1085 211.069 72.2797 211.005 72.4508 210.941C72.6006 210.877 72.7504 210.834 72.9216 210.771C72.943 210.771 72.943 210.749 72.9644 210.749L72.9002 209.705Z" fill="#1E1E23"/>
<path d="M226.091 262.926L224.079 234.728L223.822 231.275L223.715 229.868L220.27 181.891C220.27 181.87 220.27 181.827 220.27 181.806L219.971 177.756C219.971 177.735 219.971 177.692 219.971 177.671L219.949 177.415L219.842 175.881V175.859V175.796L219.778 174.794L219.265 167.76L219.008 164.052C218.986 163.732 218.815 163.434 218.537 163.263C218.259 163.093 217.916 163.05 217.617 163.178L211.904 165.394L199.578 170.169L186.204 175.348L185.948 175.455C185.605 175.582 185.348 175.902 185.306 176.264C185.284 176.328 185.284 176.414 185.306 176.478L185.37 177.287L192.367 274.968L192.431 276.012L192.453 276.247C192.474 276.566 192.645 276.865 192.923 277.035C193.052 277.121 193.18 277.163 193.33 277.184C193.373 277.184 193.437 277.206 193.48 277.206C193.608 277.206 193.737 277.185 193.843 277.142H193.865L225.534 264.865C225.962 264.695 226.219 264.29 226.176 263.842L226.091 262.926ZM209.892 268.702L194.378 274.712L193.523 262.926L191.468 234.216L191.447 233.854L187.381 177.096L199.557 172.364L211.882 167.59L217.039 165.586L217.296 169.188L218.601 187.539L218.687 188.712V188.733L218.73 189.436L218.751 189.884L221.319 225.669L221.554 228.803L221.683 230.465L222.41 240.738L222.56 242.848L223.994 262.926L224.015 263.224L211.839 267.956L209.892 268.702Z" fill="#1E1E23"/>
<path d="M194.485 276.098L194.463 275.779L194.399 274.713L193.543 262.927L191.489 234.217L191.468 233.855L187.338 176.351C187.338 176.244 187.316 176.138 187.273 176.052C187.145 175.711 186.845 175.455 186.46 175.413L186.182 175.37L140.989 168.72L140.476 168.635C140.369 168.614 140.262 168.614 140.155 168.635C140.133 168.635 140.133 168.635 140.112 168.635C140.09 168.635 140.069 168.635 140.048 168.656C140.026 168.656 139.983 168.678 139.962 168.678C139.834 168.72 139.727 168.784 139.641 168.891C139.406 169.104 139.299 169.402 139.32 169.722L139.341 170.021L139.555 172.855L140.454 185.302L140.604 187.519L146.424 268.745L146.488 269.513C146.488 269.619 146.51 269.704 146.553 269.79C146.681 270.131 146.981 270.386 147.366 270.45L147.623 270.493L193.329 277.207C193.372 277.207 193.436 277.228 193.479 277.228C193.607 277.228 193.736 277.207 193.843 277.164H193.864C193.971 277.122 194.078 277.058 194.185 276.972C194.378 276.717 194.506 276.418 194.485 276.098ZM148.457 268.532L144.434 212.456L142.615 187.071L142.466 184.94L141.46 170.852L185.348 177.31L192.345 274.99L148.457 268.532Z" fill="#1E1E23"/>
<path d="M72.5993 230.191C68.1484 229.764 65.7732 225.502 64.5963 222.028C60.8089 211.008 62.8845 191.783 70.0529 179.869C70.0529 179.358 70.0743 178.867 70.1171 178.377C70.0743 177.78 69.9673 177.184 69.8817 176.587C69.8817 176.544 69.8817 176.502 69.8817 176.459C61.2154 188.65 58.4979 210.497 62.6919 222.71C64.6819 228.528 68.0629 231.832 72.4495 232.258C72.4923 232.258 72.5137 232.258 72.5565 232.258C73.07 232.258 73.5194 231.853 73.5836 231.342C73.5622 230.745 73.1556 230.233 72.5993 230.191Z" fill="#1E1E23"/>
<path d="M79.2765 170.896C78.7416 170.448 76.7087 169.233 73.3278 172.388C72.4719 173.198 71.6588 174.072 70.8884 175.031C71.0596 175.159 71.2308 175.286 71.402 175.436C71.9797 175.414 72.5789 175.457 73.1566 175.5C73.6488 174.924 74.1838 174.391 74.7187 173.88C76.3022 172.388 77.5005 172.111 77.9284 172.473C78.3778 172.835 78.4848 174.157 77.5005 175.649C77.4577 175.713 77.4149 175.777 77.3935 175.819C78.121 175.926 78.8272 176.054 79.5333 176.224C80.6888 174.157 80.5818 171.983 79.2765 170.896Z" fill="#1E1E23"/>
<path d="M81.3719 187.029C68.0194 190.61 68.0194 186.774 66.9923 193.168C65.9652 199.562 65.1949 217.209 71.3575 214.908C77.5202 212.606 81.3719 187.029 81.3719 187.029Z" fill="white"/>
<path d="M68.5115 190.227C85.4161 183.961 90.3804 180.913 91.7285 184.409C92.4775 186.327 90.8298 188.245 84.0038 191.165C75.7227 194.703 70.8867 198.05 70.8867 198.05C87.7913 191.783 97.9126 192.444 92.6487 199.819L68.5115 190.227Z" fill="white"/>
<path d="M92.6513 200.863C92.4373 200.863 92.2447 200.799 92.0521 200.671C91.5814 200.351 91.4744 199.712 91.8167 199.243C92.4587 198.327 93.4644 196.664 92.8011 195.812C91.6456 194.32 84.9479 193.936 71.2317 199.009C70.7395 199.179 70.2045 198.987 69.9692 198.518C69.7338 198.071 69.8622 197.495 70.2901 197.197C70.4827 197.048 75.2973 193.744 83.5784 190.206C91.56 186.796 90.9608 185.261 90.7682 184.75C90.5756 184.281 90.3831 184.132 90.1905 184.046C88.821 183.45 84.8623 184.984 78.2717 187.563C75.5755 188.608 72.5369 189.801 68.8565 191.165C68.3215 191.357 67.7223 191.101 67.5298 190.568C67.3372 190.036 67.594 189.46 68.1289 189.247C71.788 187.883 74.8266 186.711 77.5227 185.666C85.3117 182.64 88.8638 181.254 91.0036 182.192C91.7525 182.533 92.3303 183.151 92.6727 184.025C93.9138 187.243 90.2547 189.588 84.3916 192.103C82.8081 192.785 81.353 193.446 80.0477 194.085C87.5371 192.21 92.6941 192.337 94.4273 194.554C95.1977 195.556 95.647 197.367 93.4858 200.415C93.2932 200.714 92.9722 200.863 92.6513 200.863Z" fill="#1E1E23"/>
<path d="M70.8018 204.211C87.7063 197.944 96.501 197.795 92.3926 205.17L70.8018 204.211Z" fill="white"/>
<path d="M92.3923 206.191C92.2211 206.191 92.05 206.148 91.9002 206.063C91.408 205.786 91.2154 205.168 91.4936 204.678C92.0072 203.761 92.7561 202.099 92.1141 201.353C90.8731 199.903 84.7104 200.138 71.1653 205.168C70.6303 205.36 70.0312 205.104 69.8386 204.571C69.646 204.038 69.9028 203.463 70.4378 203.25C83.5121 198.39 91.3224 197.303 93.6548 200.01C94.7675 201.289 94.6391 203.207 93.2696 205.658C93.0985 205.999 92.7561 206.191 92.3923 206.191Z" fill="#1E1E23"/>
<path d="M70.717 210.498C87.6216 204.232 92.2008 204.274 92.158 208.025C92.1152 212.224 74.0979 215.038 70.396 219.194L70.717 210.498Z" fill="white"/>
<path d="M70.4167 220.216C70.1813 220.216 69.9245 220.131 69.7319 219.96C69.304 219.577 69.2612 218.937 69.6464 218.511C71.4866 216.443 76.0658 214.845 80.9018 213.161C84.9675 211.733 91.1302 209.602 91.1302 208.025C91.1302 207.257 90.8948 207.001 90.7022 206.852C88.22 205.105 75.3169 209.9 71.08 211.477C70.5451 211.669 69.9459 211.413 69.7533 210.881C69.5608 210.348 69.8175 209.772 70.3525 209.559C85.4168 203.975 89.8463 203.762 91.8791 205.19C92.7564 205.808 93.2058 206.767 93.1844 208.067C93.1416 211.072 87.792 212.948 81.5652 215.122C77.3925 216.571 72.6635 218.234 71.1656 219.918C70.973 220.109 70.6949 220.216 70.4167 220.216Z" fill="#1E1E23"/>
<path d="M269.079 247.922C263.43 229.166 253.672 203.91 253.672 203.91C253.672 203.91 252.303 198.752 252.025 198.496C251.639 197.537 249.821 199.157 249.692 200.094C246.739 202.418 243.679 202.098 239.977 202.887C239.806 202.929 227.952 186.326 222.923 178.781C221.896 177.779 220.89 176.777 219.863 175.797C219.842 175.797 219.82 175.797 219.82 175.818C220.227 179.804 220.462 184.834 220.655 188.862C220.74 190.461 219.029 189.907 218.579 188.372C218.558 188.287 218.536 188.201 218.515 188.095C218.515 188.095 218.515 188.095 218.494 188.095C218.173 188.351 217.745 188.478 217.338 188.351C217.359 188.649 217.338 188.947 217.381 189.246C212.288 193.53 218.173 222.197 218.173 222.197C220.633 227.973 223.137 231.511 224.785 231.639C225.106 232.598 225.448 233.557 225.79 234.516C231.782 244.853 234.949 253.677 241.026 263.929C247.338 268.042 253.629 270.11 259.856 266.998C267.667 266.891 271.326 255.382 269.079 247.922Z" fill="white"/>
<path d="M219.67 189.18C203.3 181.593 198.614 178.182 196.988 181.55C196.089 183.404 197.587 185.45 204.156 188.903C212.138 193.081 216.696 196.81 216.696 196.81C200.326 189.223 190.205 189.116 194.848 196.853L219.67 189.18Z" fill="white"/>
<path d="M194.849 197.876C194.506 197.876 194.164 197.705 193.971 197.385C192.045 194.188 192.645 192.398 193.5 191.482C195.384 189.393 200.54 189.67 207.859 192.142C206.596 191.396 205.205 190.629 203.686 189.819C198.015 186.856 194.57 184.235 196.068 181.123C196.475 180.271 197.095 179.695 197.866 179.418C200.07 178.651 203.515 180.313 211.047 183.936C213.636 185.194 216.589 186.601 220.12 188.242C220.633 188.476 220.847 189.094 220.612 189.606C220.377 190.117 219.756 190.331 219.243 190.096C215.69 188.455 212.737 187.027 210.148 185.769C203.793 182.7 199.963 180.846 198.55 181.336C198.358 181.4 198.144 181.528 197.93 181.997C197.523 182.849 197.78 184.384 204.649 188.007C212.63 192.185 217.167 195.872 217.359 196.021C217.766 196.341 217.852 196.916 217.573 197.364C217.295 197.79 216.739 197.961 216.268 197.748C203.001 191.609 196.304 191.46 195.02 192.867C194.292 193.655 195.148 195.403 195.726 196.362C196.025 196.853 195.854 197.471 195.362 197.769C195.212 197.833 195.02 197.876 194.849 197.876Z" fill="#1E1E23"/>
<path d="M216.289 202.929C199.919 195.342 191.189 194.51 194.698 202.183L216.289 202.929Z" fill="white"/>
<path d="M216.268 203.951C216.119 203.951 215.969 203.929 215.84 203.844C202.745 197.77 196.625 197.045 195.255 198.388C194.549 199.091 195.17 200.796 195.619 201.755C195.854 202.267 195.619 202.885 195.106 203.119C194.592 203.354 193.971 203.119 193.736 202.608C192.559 200.05 192.581 198.153 193.8 196.938C196.347 194.423 204.05 196.128 216.696 201.99C217.21 202.224 217.424 202.842 217.188 203.354C217.039 203.737 216.675 203.951 216.268 203.951Z" fill="#1E1E23"/>
<path d="M219.798 175.818C230.733 186.177 258.807 234.623 258.807 234.623L219.798 175.818Z" fill="white"/>
<path d="M258.807 235.645C258.444 235.645 258.101 235.453 257.909 235.134C257.631 234.643 229.77 186.709 219.071 176.564C218.664 176.18 218.643 175.519 219.028 175.114C219.413 174.709 220.077 174.688 220.483 175.072C231.396 185.409 258.529 232.128 259.663 234.111C259.942 234.601 259.77 235.219 259.278 235.517C259.171 235.602 258.979 235.645 258.807 235.645Z" fill="#1E1E23"/>
<path d="M240.427 204.228C239.892 204.228 239.421 203.845 239.379 203.312C239.314 202.758 239.742 202.246 240.32 202.182C240.406 202.182 248.345 201.33 250.698 197.706C251.019 197.238 251.661 197.088 252.153 197.387C252.646 197.685 252.795 198.325 252.496 198.793C249.586 203.269 240.898 204.186 240.534 204.207C240.513 204.228 240.47 204.228 240.427 204.228Z" fill="#1E1E23"/>
<path d="M253.094 269.64C247.016 269.64 241.56 266.72 238.457 261.264C238.243 260.859 217.936 222.814 214.662 218.509C213.314 216.718 208.714 214.694 204.669 212.925C198.656 210.282 193.457 207.98 193.649 204.996C193.735 203.717 194.248 202.779 195.169 202.225C197.287 200.968 201.695 201.522 216.267 208.278C216.781 208.513 216.995 209.131 216.759 209.642C216.524 210.154 215.903 210.367 215.39 210.132C211.281 208.236 198.806 202.438 196.196 203.994C195.982 204.122 195.725 204.356 195.682 205.124C195.575 206.701 201.545 209.323 205.482 211.049C210.169 213.116 214.598 215.056 216.289 217.273C219.648 221.706 239.399 258.706 240.233 260.262C244.534 267.807 253.671 269.789 262.423 265.079C272.48 259.665 268.992 249.882 262.659 232.149C261.546 229.038 260.39 225.819 259.192 222.303C259.149 222.175 255.619 211.283 242.587 173.175C230.026 136.451 209.249 134.363 183.4 135.45C182.886 135.492 182.351 135.045 182.33 134.469C182.308 133.915 182.736 133.425 183.314 133.403C209.099 132.316 231.524 134.512 244.534 172.514C257.566 210.623 261.118 221.557 261.161 221.663C262.338 225.159 263.493 228.356 264.606 231.467C271.111 249.648 275.027 260.624 263.407 266.891C259.984 268.745 256.453 269.64 253.094 269.64Z" fill="#1E1E23"/>
<path d="M173.169 83.3592C193.027 65.6263 182.777 105.568 197.135 109.959C206.037 112.687 205.352 123.599 195.081 125.645C184.81 127.692 168.376 124.281 171.115 103.82C173.854 83.3592 173.169 83.3592 173.169 83.3592Z" fill="#1E1E23"/>
<path d="M197.843 80.9297C195.895 74.3651 185.517 72.596 179.526 75.6439C177.386 76.7309 172.999 65.2428 158.919 64.9444C146.786 64.71 139.661 68.2694 137.264 76.3259C136.387 79.2672 136.152 82.784 136.515 86.9401C137.649 99.4938 138.099 112.644 142.229 117.632C146.316 122.555 151.13 122.832 157.55 121.468L159.861 134.789C160.332 150.092 180.831 149.304 182.436 134.491C180.21 120.339 179.675 108.083 179.675 108.083C184.105 103.288 183.634 96.9788 183.634 96.9788C194.034 93.3981 200.068 88.4321 197.843 80.9297Z" fill="white"/>
<path d="M198.827 80.6313C198.035 77.9458 195.96 75.8144 192.878 74.493C191.402 73.8536 189.776 73.4486 188.149 73.2781C185.303 72.9584 182.372 73.3207 179.932 74.3225C179.676 74.429 179.44 74.5356 179.183 74.6635C178.798 74.4717 177.921 73.5765 177.215 72.8305C177.065 72.66 176.894 72.4895 176.723 72.319C175.396 70.9549 173.641 69.2072 171.266 67.6726C168.228 65.6904 164.226 64.028 158.919 63.9214C149.996 63.7296 143.684 65.6265 139.854 69.6548C138.206 71.3812 137.008 73.5126 136.259 76.0276C135.895 77.2211 135.638 78.4786 135.488 79.8427C135.232 81.9741 135.232 84.3612 135.467 87.0254C135.638 88.8157 135.766 90.6061 135.916 92.3964C136.815 103.373 137.65 113.753 141.416 118.271C145.652 123.386 150.617 123.813 156.715 122.662L158.641 133.788L158.834 134.875C158.834 135.194 158.855 135.514 158.898 135.834C159.561 143.229 164.825 146.746 169.961 146.938C170.111 146.938 170.282 146.938 170.432 146.938C176.102 146.938 182.115 143.059 183.335 135.45C183.378 135.173 183.42 134.875 183.463 134.576C183.463 134.491 183.463 134.406 183.463 134.299C183.42 134.001 183.378 133.702 183.313 133.404C182.864 130.484 182.5 127.649 182.179 125.006C181.195 116.651 180.81 110.108 180.724 108.424C184.233 104.375 184.661 99.5578 184.683 97.6609C186.138 97.1494 187.486 96.5952 188.727 96.0411C197.415 92.098 200.731 87.0254 198.827 80.6313ZM183.292 95.9984C182.843 96.1476 182.564 96.5739 182.607 97.0428C182.607 97.1067 182.992 102.968 178.927 107.38C178.734 107.572 178.649 107.849 178.649 108.126C178.649 108.211 178.948 114.989 179.997 124.154C180.36 127.372 180.831 130.889 181.387 134.512C180.553 141.588 175.054 145.105 170.025 144.913C165.938 144.764 161.102 142.015 160.888 134.768V134.747C160.888 134.725 160.888 134.683 160.888 134.661C160.888 134.64 160.888 134.64 160.888 134.619V134.555L158.577 121.298C158.534 121.021 158.363 120.786 158.149 120.616C157.978 120.509 157.785 120.445 157.571 120.445C157.507 120.445 157.421 120.445 157.357 120.466C151.366 121.745 146.872 121.596 143.042 116.971C139.704 112.943 138.869 102.883 138.013 92.2259C137.864 90.4356 137.714 88.6239 137.564 86.8336C137.329 84.1907 137.35 81.8035 137.628 79.6935C137.778 78.5852 137.992 77.5408 138.27 76.603C139.19 73.5339 140.816 71.1467 143.234 69.4203C146.744 66.9266 151.901 65.797 158.919 65.9462C162.364 66.0101 165.21 66.7774 167.543 67.8857C170.646 69.3351 172.914 71.3386 174.604 73.0437C175.011 73.4486 175.396 73.8536 175.738 74.2159C177.386 75.9423 178.606 77.1998 179.954 76.5391C179.975 76.5391 179.975 76.5178 179.997 76.5178C183.249 74.8766 187.978 74.7487 191.68 76.1767C191.808 76.2194 191.937 76.2833 192.065 76.3473C192.943 76.7309 193.948 77.2638 194.826 78.0524C195.703 78.841 196.473 79.864 196.858 81.1855C198.399 86.4073 195.681 90.5421 188.299 93.9736C186.823 94.6983 185.154 95.359 183.292 95.9984Z" fill="#1E1E23"/>
<path d="M154.704 102.18C154.49 102.18 154.297 102.116 154.104 101.988C148.327 97.8956 148.584 91.0326 150.959 80.5676C151.087 80.0134 151.644 79.6724 152.179 79.8003C152.735 79.9282 153.077 80.4823 152.949 81.0152C150.381 92.2261 151.002 97.2775 155.281 100.304C155.752 100.624 155.859 101.263 155.517 101.732C155.324 102.03 155.025 102.18 154.704 102.18Z" fill="#1E1E23"/>
<path d="M166 87.7683C166.723 87.4782 167.074 86.6588 166.783 85.9381C166.491 85.2173 165.669 84.8682 164.945 85.1583C164.222 85.4484 163.871 86.2679 164.162 86.9886C164.454 87.7093 165.276 88.0584 166 87.7683Z" fill="#1E1E23"/>
<path d="M144.175 89.2371C144.899 88.947 145.249 88.1276 144.958 87.4068C144.667 86.6861 143.844 86.337 143.12 86.6271C142.397 86.9172 142.046 87.7366 142.338 88.4573C142.629 89.1781 143.452 89.5272 144.175 89.2371Z" fill="#1E1E23"/>
<path d="M162.749 82.2081C162.685 81.5687 163.156 81.0785 163.755 80.9719C164.376 80.8653 164.996 80.7588 165.617 80.6309C166.216 80.5243 166.794 81.0572 166.858 81.6326C166.922 82.272 166.451 82.7622 165.852 82.8688C165.231 82.9754 164.611 83.0819 163.99 83.2098C163.391 83.3164 162.813 82.7836 162.749 82.2081Z" fill="#1E1E23"/>
<path d="M183.848 89.326C183.827 89.326 183.784 89.326 183.762 89.326C183.206 89.2833 182.778 88.7931 182.821 88.2176C183.056 85.2764 186.523 79.0954 191.23 78.2002C191.787 78.0937 192.322 78.456 192.429 79.0102C192.536 79.5643 192.172 80.0972 191.615 80.2037C187.849 80.9071 185.046 86.2781 184.875 88.3668C184.832 88.921 184.383 89.326 183.848 89.326Z" fill="#1E1E23"/>
<path d="M180.681 67.0759L135.039 69.9745L136.366 51.7727L176.445 49.7266L180.681 67.0759Z" fill="#1E1E23"/>
<path d="M180.681 67.0762L135.039 69.9748L126.993 80.3972L192.215 75.0901L180.681 67.0762Z" fill="#1E1E23"/>
<path d="M179.461 72.1267C179.118 70.9331 177.342 71.3594 177.471 72.489C177.128 72.3398 176.764 72.2972 176.401 72.3612C176.037 72.3398 175.673 72.3825 175.331 72.553C174.667 72.8727 174.261 73.4055 174.047 74.0023C173.533 74.0023 173.02 74.3433 172.977 74.9827C172.913 76.3042 172.934 77.7535 173.747 78.8618C174.56 79.9701 175.951 80.3325 177.235 79.9488C180.702 78.9258 180.231 74.7696 179.461 72.1267Z" fill="#1E1E23"/>
<path d="M163.305 104.332C162.685 104.524 162.064 104.737 161.444 104.929C160.909 105.1 160.502 105.526 160.609 106.123C160.695 106.613 161.272 107.103 161.807 106.954C162.428 106.762 163.048 106.549 163.669 106.357C164.204 106.187 164.61 105.76 164.503 105.164C164.418 104.673 163.84 104.162 163.305 104.332Z" fill="#1E1E23"/>
<path d="M144.926 80.5676C143.578 79.6084 141.502 80.1413 140.753 81.5906C140.154 82.7629 141.909 83.7859 142.529 82.6137C142.807 82.0595 143.407 81.9743 143.899 82.3153C144.348 82.635 145.054 82.4005 145.311 81.9529C145.589 81.4627 145.375 80.8873 144.926 80.5676Z" fill="#1E1E23"/>
<path d="M271.19 84C267.231 84 264 87.2184 264 91.1614C264 95.1044 267.231 98.3228 271.19 98.3228C275.148 98.3228 278.38 95.1044 278.38 91.1614C278.38 87.2184 275.148 84 271.19 84ZM271.19 96.298C268.365 96.298 266.054 93.9961 266.054 91.1827C266.054 88.3693 268.365 86.0674 271.19 86.0674C274.014 86.0674 276.325 88.3693 276.325 91.1827C276.325 93.9961 274.014 96.298 271.19 96.298Z" fill="#1E1E23"/>
<path d="M89.8757 76.5658C87.4791 73.4966 85.0825 70.4275 82.6859 67.3583C81.8728 66.314 80.4391 67.7846 81.2309 68.8077L88.4421 78.0152C89.2338 79.0382 90.6889 77.5889 89.8757 76.5658Z" fill="#1E1E23"/>
<path d="M72.0229 101.029C71.1241 100.113 70.2254 99.1964 69.3267 98.2586C68.4066 97.3208 66.9515 98.7701 67.8716 99.7079C68.7703 100.624 69.6691 101.541 70.5678 102.479C71.4879 103.417 72.943 101.967 72.0229 101.029Z" fill="#1E1E23"/>
<path d="M260.072 54.5046C257.354 59.3001 255.856 60.1953 253.139 64.9696C252.497 66.1205 254.252 67.1435 254.915 65.9926C257.633 61.197 259.13 60.3019 261.848 55.5276C262.49 54.3767 260.714 53.3536 260.072 54.5046Z" fill="#1E1E23"/>
<path d="M245.561 128.913C246.721 127.245 247.91 125.585 249.07 123.917C249.819 122.834 248.077 121.754 247.328 122.837C246.168 124.505 244.979 126.165 243.819 127.833C243.052 128.926 244.813 129.996 245.561 128.913Z" fill="#1E1E23"/>
<path d="M95.5864 31C90.301 31 86 35.2841 86 40.5485C86 45.813 90.301 50.097 95.5864 50.097C100.872 50.097 105.173 45.813 105.173 40.5485C105.173 35.2841 100.872 31 95.5864 31ZM95.5864 48.0509C91.4352 48.0509 88.0542 44.6834 88.0542 40.5485C88.0542 36.4137 91.4352 33.0461 95.5864 33.0461C99.7377 33.0461 103.119 36.4137 103.119 40.5485C103.119 44.6834 99.7377 48.0509 95.5864 48.0509Z" fill="#1E1E23"/>
</svg>
