<svg fill="none" height="370" viewBox="0 0 588 370" width="588" xmlns="http://www.w3.org/2000/svg">
<path d="M326.265 297.202C331.972 299.144 337.846 300.542 343.743 301.773V292.229H314.754C318.449 294.194 322.286 295.852 326.265 297.202Z" fill="#1E1E23"/>
<path d="M275.841 303.786C272.999 304.07 270.512 306.131 268.049 307.386C267.552 307.647 266.746 307.457 266.652 306.818C265.965 302.673 268.736 299.855 271.862 297.581C274.065 295.97 277.049 294.455 278.944 292.252H187.428V311.578H284.723C281.644 309.115 278.825 306.344 275.841 303.786Z" fill="#1E1E23"/>
<path d="M263.644 298.859H254.549C253.081 298.859 253.081 301.133 254.549 301.133H263.644C265.112 301.133 265.112 298.859 263.644 298.859Z" fill="white"/>
<path d="M243.181 303.406H239.012C237.544 303.406 237.544 305.68 239.012 305.68H243.181C244.649 305.68 244.649 303.406 243.181 303.406Z" fill="white"/>
<path d="M216.252 296.965H203.368C201.899 296.965 201.899 299.239 203.368 299.239H216.252C217.72 299.239 217.72 296.965 216.252 296.965Z" fill="white"/>
<path d="M256.752 252.084H236.123V286.686H256.752V252.084Z" fill="white"/>
<path d="M256.752 287.847H236.123C235.484 287.847 234.986 287.349 234.986 286.71V252.108C234.986 251.468 235.484 250.971 236.123 250.971H256.752C257.391 250.971 257.889 251.468 257.889 252.108V286.71C257.889 287.326 257.368 287.847 256.752 287.847ZM237.26 285.573H255.615V253.244H237.26V285.573Z" fill="#1E1E23"/>
<path d="M317.288 266.46H175.587C172.934 266.46 170.494 265.512 168.6 263.926C166.208 261.936 164.692 258.928 164.692 255.565V141.834C164.692 138.4 166.279 135.321 168.766 133.332C170.637 131.839 173.005 130.939 175.587 130.939H317.288C320.296 130.939 323.02 132.147 324.986 134.137C326.951 136.103 328.183 138.826 328.183 141.834V255.541C328.183 257.886 327.449 260.041 326.194 261.818C324.228 264.636 320.983 266.46 317.288 266.46Z" fill="white"/>
<path d="M317.099 267.596H175.776C169.026 267.596 163.555 262.102 163.555 255.375V142.047C163.555 135.297 169.05 129.826 175.776 129.826H317.099C323.849 129.826 329.32 135.321 329.32 142.047V255.375C329.32 262.102 323.849 267.596 317.099 267.596ZM175.776 132.076C170.281 132.076 165.829 136.529 165.829 142.023V255.352C165.829 260.846 170.281 265.299 175.776 265.299H317.099C322.594 265.299 327.046 260.846 327.046 255.352V142.047C327.046 136.552 322.594 132.1 317.099 132.1H175.776V132.076Z" fill="#1E1E23"/>
<path d="M174.995 201.305C174.758 201.305 174.497 201.234 174.308 201.068C174.023 200.855 173.858 200.523 173.858 200.168V140.887C173.858 140.247 174.355 139.75 174.995 139.75H226.034C226.365 139.75 226.673 139.892 226.886 140.129C227.099 140.366 227.194 140.697 227.171 141.005C223.902 169.545 203.06 193.75 175.302 201.258C175.208 201.281 175.089 201.305 174.995 201.305ZM176.131 142.024V198.652C201.852 191.073 221.155 168.597 224.731 142.024H176.131Z" fill="#1E1E23"/>
<path d="M317.88 245.855H174.995C174.355 245.855 173.858 245.357 173.858 244.718V140.887C173.858 140.247 174.355 139.75 174.995 139.75H317.857C318.496 139.75 318.994 140.247 318.994 140.887V244.718C319.017 245.357 318.496 245.855 317.88 245.855ZM176.131 243.581H316.72V142.024H176.131V243.581Z" fill="#1E1E23"/>
<path d="M279.204 288.176H213.671V282.919C213.671 282.161 214.286 281.545 215.044 281.545H277.831C278.589 281.545 279.204 282.161 279.204 282.919V288.176Z" fill="white"/>
<path d="M279.205 289.315H213.671C213.031 289.315 212.534 288.818 212.534 288.179C212.534 283.892 216.016 280.41 220.302 280.41H272.597C276.884 280.41 280.365 283.892 280.365 288.179C280.341 288.818 279.844 289.315 279.205 289.315ZM214.926 287.042H277.949C277.428 284.555 275.226 282.684 272.573 282.684H220.302C217.65 282.684 215.447 284.555 214.926 287.042Z" fill="#1E1E23"/>
<path d="M306.868 258.669C308.96 258.669 310.657 256.972 310.657 254.879C310.657 252.786 308.96 251.09 306.868 251.09C304.775 251.09 303.078 252.786 303.078 254.879C303.078 256.972 304.775 258.669 306.868 258.669Z" fill="#1E1E23"/>
<path d="M306.868 259.829C304.144 259.829 301.941 257.626 301.941 254.903C301.941 252.179 304.144 249.977 306.868 249.977C309.591 249.977 311.794 252.179 311.794 254.903C311.794 257.626 309.591 259.829 306.868 259.829ZM306.868 252.227C305.399 252.227 304.215 253.411 304.215 254.879C304.215 256.348 305.399 257.532 306.868 257.532C308.336 257.532 309.52 256.348 309.52 254.879C309.52 253.434 308.336 252.227 306.868 252.227Z" fill="#1E1E23"/>
<path d="M291.127 164.212C290.891 164.212 290.63 164.141 290.441 163.975C289.943 163.596 289.849 162.885 290.251 162.388L297.972 152.441C298.351 151.943 299.062 151.849 299.559 152.251C300.056 152.63 300.151 153.341 299.748 153.838L292.027 163.785C291.814 164.069 291.483 164.212 291.127 164.212Z" fill="#1E1E23"/>
<path d="M295.012 172.501C294.562 172.501 294.135 172.217 293.946 171.767C293.709 171.175 294.017 170.512 294.609 170.299L301.785 167.528C302.377 167.314 303.041 167.599 303.254 168.191C303.491 168.783 303.183 169.446 302.591 169.659L295.414 172.43C295.272 172.478 295.13 172.501 295.012 172.501Z" fill="#1E1E23"/>
<path d="M163.96 94H80V121.616H163.96V94Z" fill="#E7F1FC"/>
<path d="M150.6 109.274H94.2552C93.6158 109.274 93.1184 108.776 93.1184 108.137C93.1184 107.497 93.6158 107 94.2552 107H150.6C151.239 107 151.736 107.497 151.736 108.137C151.736 108.776 151.215 109.274 150.6 109.274Z" fill="#1E1E23"/>
<path d="M512.721 250.442C516.985 250.442 520.442 246.985 520.442 242.721C520.442 238.457 516.985 235 512.721 235C508.457 235 505 238.457 505 242.721C505 246.985 508.457 250.442 512.721 250.442Z" fill="white"/>
<path d="M79.9651 260.806C78.7098 259.029 77.4309 257.277 76.1756 255.501C75.323 254.316 73.3572 255.453 74.2098 256.637C75.4651 258.414 76.744 260.166 77.9993 261.943C78.8519 263.15 80.8177 262.014 79.9651 260.806Z" fill="white"/>
<path d="M494.695 95.671C494.292 95.2683 493.463 95.1973 493.084 95.671C492.066 96.9262 491.071 98.2051 490.053 99.4604C489.674 99.9341 489.579 100.597 490.053 101.071C490.455 101.474 491.284 101.545 491.663 101.071C492.682 99.8157 493.676 98.5367 494.695 97.2815C495.074 96.8078 495.145 96.1446 494.695 95.671Z" fill="white"/>
<path d="M413.185 206.233C417.448 203.106 422.659 200.691 427.988 200.856L420.764 174.899C420.764 174.899 432.914 166.917 431.564 144.204C430.996 134.541 426.33 125.304 419.059 119.762C407.122 110.668 380.217 108.275 378.678 128.288C379.53 145.767 375.599 164.501 377.162 175.68C377.683 179.422 379.175 183.496 381.33 185.154C387.772 190.08 395.541 187.049 395.541 187.049L405.18 213.954C407.477 210.993 410.249 208.412 413.185 206.233Z" fill="white"/>
<path d="M406.057 212.911L396.654 186.645C396.559 186.361 396.322 186.124 396.062 186.006C395.92 185.935 395.754 185.911 395.588 185.911C395.446 185.911 395.304 185.935 395.186 185.982C395.114 186.006 387.938 188.729 382.065 184.253C380.383 182.974 378.867 179.445 378.322 175.514C377.541 169.948 378.18 162.179 378.867 153.937C379.53 145.956 380.265 136.909 379.862 128.287C380.336 122.366 383.154 118.198 388.222 115.924C397.246 111.874 411.125 115.095 418.396 120.638C425.383 125.966 429.906 134.801 430.451 144.251C431.73 165.969 420.267 173.856 420.149 173.95C419.746 174.211 419.556 174.732 419.675 175.206L426.827 200.879C427.609 200.855 428.414 200.879 429.22 200.95L422.091 175.348C424.72 173.24 433.909 164.382 432.725 144.132C432.133 134.019 427.277 124.569 419.77 118.838C412.001 112.917 397.364 109.34 387.275 113.864C381.449 116.469 378.086 121.419 377.565 128.193C377.565 128.24 377.565 128.288 377.565 128.335C377.967 136.814 377.233 145.814 376.57 153.748C375.883 162.108 375.22 169.995 376.049 175.821C376.546 179.445 378.038 184.04 380.667 186.053C386.138 190.221 392.367 189.156 394.878 188.469L404.422 215.066C404.92 214.308 405.464 213.598 406.057 212.911Z" fill="#1E1E23"/>
<path d="M431.588 144.205C431.019 134.541 426.354 125.305 419.083 119.763C410.248 113.036 393.22 109.981 384.362 116.968C388.791 117.418 393.006 118.792 396.464 121.539C397.459 126.418 398.454 131.297 399.472 136.199C399.993 138.757 400.017 144.465 403.096 145.507C404.375 145.934 405.37 145.697 406.104 144.986C406.199 145.839 406.388 145.72 406.459 146.573C407.17 147.947 407.809 149.32 408.306 150.718C410.77 157.468 410.651 168.789 417.022 173.454C418.633 174.615 419.509 175.894 421.356 176.06C424.127 173.668 432.701 163.128 431.588 144.205Z" fill="#1E1E23"/>
<path d="M375.291 165.235C375.03 165.235 374.77 165.141 374.557 164.975C368.659 160.12 370.862 155.264 374.509 147.235C375.409 145.27 376.428 143.043 377.446 140.533C377.683 139.941 378.346 139.68 378.938 139.917C379.53 140.154 379.791 140.817 379.554 141.409C378.512 143.943 377.493 146.193 376.593 148.183C372.78 156.567 371.691 159.646 376.001 163.222C376.475 163.625 376.546 164.335 376.143 164.833C375.93 165.093 375.622 165.235 375.291 165.235Z" fill="#1E1E23"/>
<path d="M404.849 144.489C415.08 136.247 424.009 140.628 425.88 146.478C429.006 156.141 421.617 163.247 406.838 163.247" fill="white"/>
<path d="M406.838 164.382C406.199 164.382 405.701 163.884 405.701 163.245C405.701 162.606 406.199 162.108 406.838 162.108C414.914 162.108 420.907 159.953 423.749 156.069C425.596 153.535 425.951 150.337 424.814 146.832C424.009 144.369 421.807 142.332 419.035 141.527C414.938 140.319 410.178 141.692 405.559 145.387C405.062 145.79 404.351 145.695 403.972 145.221C403.57 144.724 403.665 144.014 404.138 143.635C411.149 137.974 416.904 138.519 419.699 139.371C423.228 140.414 425.951 142.971 426.97 146.169C428.343 150.408 427.87 154.316 425.572 157.466C422.304 161.895 415.649 164.382 406.838 164.382Z" fill="#1E1E23"/>
<path d="M418.491 147.637C414.488 147.377 410.651 149.651 408.993 153.298C408.378 154.624 410.343 155.785 410.959 154.435C412.333 151.451 415.222 149.698 418.491 149.911C419.959 150.006 419.959 147.732 418.491 147.637Z" fill="#1E1E23"/>
<path d="M381.923 144.487C382.707 144.487 383.344 143.85 383.344 143.066C383.344 142.281 382.707 141.645 381.923 141.645C381.138 141.645 380.501 142.281 380.501 143.066C380.501 143.85 381.138 144.487 381.923 144.487Z" fill="#1E1E23"/>
<path d="M384.456 134.349C383.793 134.065 383.13 133.781 382.467 133.497C381.899 133.26 381.259 133.331 380.904 133.899C380.62 134.373 380.738 135.226 381.306 135.462L383.296 136.315C383.864 136.552 384.504 136.481 384.859 135.912C385.143 135.439 385.025 134.61 384.456 134.349Z" fill="#1E1E23"/>
<path d="M388.767 167.107C388.317 168.812 386.825 170.115 385.049 170.233C383.604 170.328 383.58 172.601 385.049 172.507C387.843 172.341 390.259 170.446 390.97 167.699C391.325 166.302 389.146 165.686 388.767 167.107Z" fill="#1E1E23"/>
<path d="M362.596 308.998C362.501 308.998 362.383 308.974 362.288 308.95C362.051 308.879 338.225 302.058 323.588 297.274C316.91 295.095 311.817 291.59 308.099 289.056C304.902 286.877 302.391 285.148 301.349 286C301.207 286.119 301.065 286.261 301.065 286.403C301.089 287.161 303.102 288.7 304.31 289.624C305.873 290.808 307.246 291.85 307.673 292.987C307.886 293.579 307.602 294.242 307.01 294.456C306.418 294.669 305.754 294.385 305.541 293.792C305.352 293.271 303.954 292.229 302.936 291.448C300.923 289.908 298.815 288.321 298.791 286.474C298.791 285.906 298.957 285.053 299.904 284.271C302.273 282.329 305.257 284.39 309.378 287.208C312.978 289.671 317.904 293.058 324.275 295.142C338.865 299.903 362.667 306.724 362.904 306.795C363.52 306.961 363.851 307.6 363.686 308.192C363.544 308.69 363.093 308.998 362.596 308.998Z" fill="#1E1E23"/>
<path d="M308.857 294.785C308.857 294.785 298.886 288.485 293.865 286.519C286.689 283.701 279.418 286.59 282.899 289.196C284.699 290.546 286.949 290.025 289.531 290.546C293.794 291.398 296.92 295.946 296.92 295.946" fill="white"/>
<path d="M296.92 297.06C296.565 297.06 296.21 296.895 295.973 296.563C295.949 296.516 293.036 292.371 289.294 291.637C288.465 291.471 287.66 291.424 286.878 291.376C285.291 291.282 283.657 291.163 282.212 290.097C280.27 288.653 280.91 287.113 281.147 286.687C282.497 284.271 288.512 283.205 294.268 285.455C299.336 287.445 309.046 293.579 309.449 293.839C309.97 294.171 310.136 294.882 309.804 295.403C309.473 295.924 308.762 296.089 308.241 295.758C308.147 295.687 298.294 289.482 293.439 287.587C289.649 286.095 285.718 286.308 283.823 287.279C283.302 287.539 283.136 287.776 283.112 287.847C283.112 287.871 283.231 288.061 283.562 288.297C284.462 288.961 285.599 289.032 287.02 289.126C287.849 289.174 288.773 289.245 289.744 289.434C294.41 290.358 297.702 295.095 297.844 295.308C298.199 295.829 298.057 296.539 297.56 296.895C297.37 296.989 297.133 297.06 296.92 297.06Z" fill="#1E1E23"/>
<path d="M274.799 295.688C276.197 293.367 280.697 290.525 284.107 290.809C289.483 291.282 296.897 295.925 296.897 295.925" fill="white"/>
<path d="M296.92 297.061C296.707 297.061 296.494 297.014 296.328 296.895C296.257 296.848 289.081 292.395 284.036 291.945C280.957 291.685 276.931 294.385 275.794 296.28C275.463 296.824 274.776 296.99 274.231 296.659C273.686 296.327 273.521 295.64 273.852 295.095C275.534 292.324 280.46 289.34 284.226 289.672C289.815 290.145 297.205 294.764 297.536 294.953C298.057 295.285 298.223 295.995 297.891 296.517C297.655 296.872 297.299 297.061 296.92 297.061Z" fill="#1E1E23"/>
<path d="M290.668 298.482C290.668 298.482 283.634 294.219 278.257 293.745C274.089 293.39 269.47 296.729 269.163 299.453" fill="white"/>
<path d="M269.139 300.59C269.091 300.59 269.068 300.59 269.02 300.59C268.405 300.519 267.955 299.974 268.002 299.335C268.381 295.735 273.781 292.229 278.328 292.608C283.918 293.082 290.952 297.321 291.236 297.511C291.781 297.842 291.947 298.529 291.615 299.074C291.283 299.619 290.597 299.785 290.052 299.453C289.981 299.406 283.183 295.308 278.115 294.882C274.42 294.55 270.465 297.629 270.252 299.595C270.205 300.163 269.731 300.59 269.139 300.59Z" fill="#1E1E23"/>
<path d="M372.496 342.582C366.954 342.582 361.151 340.663 353.336 338.082C351.844 337.584 350.257 337.063 348.599 336.542C331.831 331.142 289.341 314.611 284.439 312.005C282.686 311.082 281.099 309.732 279.536 308.429C276.363 305.753 274.728 304.64 273.544 305.824C271.507 307.861 268.547 309.755 266.344 308.974C265.728 308.761 264.663 308.098 264.497 306.274C264.165 302.579 269.186 296.563 272.928 296.232C276.291 295.948 282.52 299.121 283.231 299.477C283.776 299.761 284.012 300.448 283.705 301.016C283.42 301.584 282.734 301.798 282.165 301.49C280.436 300.59 275.391 298.269 273.118 298.482C271.981 298.577 270.299 299.761 268.902 301.419C267.505 303.076 266.652 304.948 266.747 306.061C266.818 306.724 267.031 306.819 267.102 306.842C267.765 307.079 269.707 306.44 271.91 304.237C274.705 301.442 278.044 304.237 280.981 306.7C282.449 307.932 283.941 309.187 285.481 310.016C290.336 312.574 332.565 329.011 349.262 334.387C350.92 334.932 352.507 335.453 353.999 335.95C367.546 340.426 374.343 342.653 384.149 336.779C392.864 331.545 412.57 283.158 421.759 258.314C421.972 257.721 422.635 257.414 423.227 257.65C423.82 257.864 424.127 258.527 423.891 259.119C422.801 262.079 396.891 331.782 385.309 338.745C380.738 341.468 376.688 342.582 372.496 342.582Z" fill="#1E1E23"/>
<path d="M409.656 286.688C400.87 286.688 380.478 280.341 376.38 272.478C376.096 271.91 376.309 271.223 376.854 270.938C377.422 270.654 378.109 270.867 378.394 271.412C382.775 279.82 407.904 285.788 411.812 284.154C412.38 283.917 413.067 284.178 413.304 284.77C413.541 285.362 413.28 286.025 412.688 286.262C411.978 286.57 410.935 286.688 409.656 286.688Z" fill="#1E1E23"/>
<path d="M476.872 318.377C476.327 318.377 475.83 317.974 475.758 317.406C475.711 317.074 470.903 285.006 461.193 247.964C451.909 212.651 435.969 199.886 424.293 202.917C405.133 207.867 399.543 221.367 389.43 245.904L388.672 247.751C377.991 273.614 362.667 311.059 362.525 311.438C362.288 312.03 361.625 312.29 361.033 312.053C360.441 311.817 360.18 311.153 360.417 310.561C360.559 310.182 375.883 272.738 386.564 246.875L387.322 245.027C397.719 219.828 403.451 205.949 423.725 200.715C435.567 197.659 453.069 208.057 463.395 247.396C473.153 284.556 477.961 316.766 478.008 317.074C478.103 317.69 477.677 318.282 477.061 318.377C476.99 318.377 476.943 318.377 476.872 318.377Z" fill="#1E1E23"/>
<path d="M401.248 329.771C400.656 329.771 400.159 329.321 400.111 328.729L398.785 313.76C398.738 313.145 399.188 312.576 399.827 312.529C400.443 312.481 401.011 312.931 401.059 313.571L402.385 328.539C402.432 329.155 401.983 329.723 401.343 329.771C401.319 329.771 401.296 329.771 401.248 329.771Z" fill="#1E1E23"/>
<path d="M347.225 260.682L366.551 257.556C359.186 252.417 350.92 252.132 347.225 260.682Z" fill="white"/>
<path d="M347.225 261.818C347.083 261.818 346.917 261.795 346.775 261.724C346.207 261.463 345.946 260.8 346.183 260.232C347.77 256.561 350.304 254.145 353.525 253.221C357.528 252.061 362.407 253.268 367.214 256.608C367.736 256.963 367.854 257.674 367.499 258.195C367.143 258.716 366.433 258.834 365.912 258.479C361.672 255.542 357.48 254.453 354.141 255.4C351.559 256.134 349.594 258.053 348.267 261.108C348.101 261.558 347.675 261.818 347.225 261.818Z" fill="#1E1E23"/>
<path d="M375.433 276.218C371.857 270.178 367.001 262.978 362.975 262.86C338.699 262.078 337.846 282.399 337.941 282.541H372.993C373.87 280.481 374.699 278.373 375.433 276.218Z" fill="#1E1E23"/>
<path d="M380.785 262.102C367.712 257.555 354.07 253.008 347.225 260.681C339.694 269.16 345.875 268.094 350.636 264.66C355.751 260.966 372.52 264.66 365.699 269.776C359.233 274.631 354.425 278.208 358.025 280.008C360.867 281.429 375.646 274.039 375.646 274.039" fill="white"/>
<path d="M358.972 281.287C358.38 281.287 357.907 281.216 357.551 281.027C356.13 280.316 355.775 279.345 355.704 278.682C355.467 276.053 359.257 273.235 364.988 268.924C366.599 267.716 366.196 267.148 366.007 266.911C364.183 264.424 354.662 263.193 351.322 265.585C349.049 267.219 344.762 269.493 343.08 267.645C341.849 266.272 342.867 263.88 346.396 259.924C353.857 251.517 368.375 256.585 381.164 261.038C381.757 261.251 382.064 261.89 381.875 262.482C381.662 263.074 381.022 263.382 380.43 263.193C368.304 258.977 354.567 254.193 348.101 261.464C345.544 264.33 344.999 265.632 344.904 266.106C345.662 266.106 347.699 265.419 349.996 263.761C354.117 260.777 365.13 261.89 367.83 265.585C368.399 266.367 369.441 268.451 366.409 270.724C362.549 273.614 357.836 277.143 357.954 278.516C357.978 278.659 358.191 278.848 358.546 279.037C359.943 279.748 368.257 276.527 375.149 273.069C375.717 272.785 376.404 273.022 376.664 273.566C376.949 274.135 376.712 274.822 376.167 275.082C373.017 276.645 363.33 281.287 358.972 281.287Z" fill="#1E1E23"/>
<path d="M350.138 267.787C350.02 271.695 349.901 275.626 349.807 279.534C349.759 281.003 352.033 281.003 352.08 279.534C352.199 275.626 352.317 271.695 352.412 267.787C352.459 266.318 350.186 266.318 350.138 267.787Z" fill="white"/>
<path d="M285.057 173H206V220.013H285.057V173Z" fill="#E7F1FC"/>
<path d="M264.026 190.194H224.805C224.166 190.194 223.668 189.696 223.668 189.057C223.668 188.417 224.166 187.92 224.805 187.92H264.026C264.665 187.92 265.163 188.417 265.163 189.057C265.163 189.673 264.665 190.194 264.026 190.194Z" fill="#1E1E23"/>
<path d="M264.026 201.778H224.805C224.166 201.778 223.668 201.28 223.668 200.641C223.668 200.001 224.166 199.504 224.805 199.504H264.026C264.665 199.504 265.163 200.001 265.163 200.641C265.163 201.28 264.665 201.778 264.026 201.778Z" fill="#1E1E23"/>
<path d="M238.149 86.0948C236.116 83.8595 234.084 81.6241 232.052 79.3888C230.985 78.2204 229.284 79.9477 230.325 81.1161C232.357 83.3514 234.389 85.5867 236.421 87.822C237.488 88.9905 239.19 87.2632 238.149 86.0948Z" fill="white"/>
<path d="M134.896 229.792C132.193 229.792 130 227.599 130 224.896C130 222.193 132.193 220 134.896 220C137.599 220 139.792 222.193 139.792 224.896C139.792 227.599 137.599 229.792 134.896 229.792ZM134.896 222.448C133.544 222.448 132.448 223.544 132.448 224.896C132.448 226.247 133.544 227.344 134.896 227.344C136.247 227.344 137.344 226.247 137.344 224.896C137.344 223.544 136.247 222.448 134.896 222.448Z" fill="#1E1E23"/>
<path d="M502.625 139.42L494.123 142.854C492.652 143.449 493.818 145.598 495.288 145.003C498.111 143.861 500.968 142.711 503.791 141.569C505.248 140.996 504.061 138.834 502.625 139.42Z" fill="#1E1E23"/>
<path d="M79.1803 195.122C77.1403 192.878 75.1003 190.634 73.0603 188.39C71.9893 187.217 70.2808 188.951 71.3263 190.124C73.3663 192.368 75.4063 194.612 77.4463 196.856C78.5173 198.029 80.2258 196.295 79.1803 195.122Z" fill="#1E1E23"/>
</svg>